<?xml version="1.0" encoding="UTF-8"?>
<svg id="world-map" xmlns="http://www.w3.org/2000/svg" version="1.1" viewBox="0 0 784.1 458.6">
  <defs>
    <style>
      path { fill: #c6c6c6 }

      <!-- active countries -->
      #ssa,
      #us *,
      #ca *,
      #au *
      { fill: #1374d7 }

      <!-- pre countries -->
      #pre,
      #es *
      { fill: #8acaff }

      .txt * { fill: #fff }
    </style>
  </defs>



  <!-- KEY -->
  <g id="ssa">
    <rect class="cls-4" x="36" y="403.46" width="12.59" height="12.59"/>
    <g class="txt">
      <path class="cls-2" d="M55.03,414.8c-.49,0-.93-.05-1.34-.14s-.75-.22-1.02-.38c-.06-.04-.08-.1-.08-.18v-1.01s0-.05.03-.06c.02,0,.04,0,.07.01.37.25.77.43,1.19.53s.82.15,1.2.15c.67,0,1.17-.13,1.48-.4.32-.27.48-.61.48-1.04,0-.22-.05-.43-.15-.62-.1-.19-.27-.38-.51-.56-.24-.18-.57-.36-.99-.54l-.63-.27c-.57-.24-1.01-.5-1.32-.78s-.52-.56-.63-.85c-.11-.29-.17-.6-.17-.92,0-.49.12-.93.36-1.3s.59-.67,1.04-.88c.45-.21.98-.31,1.6-.31.46,0,.87.03,1.23.1s.64.16.85.28c.06.04.08.09.08.15v.92s-.01.05-.04.06-.05.02-.08,0c-.24-.17-.55-.29-.91-.36-.36-.07-.75-.11-1.15-.11-.35,0-.65.04-.9.13-.24.08-.43.19-.57.32-.14.13-.24.28-.29.43-.06.16-.08.31-.08.46,0,.21.05.4.14.58.09.18.26.36.5.53.24.17.57.34.99.53l.59.25c.57.23,1.02.49,1.34.76.33.28.56.57.69.89.13.32.2.65.2.99,0,.5-.12.95-.36,1.34-.24.39-.6.7-1.08.92-.48.22-1.05.34-1.74.34Z"/>
      <path class="cls-2" d="M61.89,414.8c-.49,0-.93-.05-1.34-.14s-.75-.22-1.02-.38c-.06-.04-.08-.1-.08-.18v-1.01s0-.05.03-.06c.02,0,.04,0,.07.01.37.25.77.43,1.19.53s.82.15,1.2.15c.67,0,1.17-.13,1.48-.4.32-.27.48-.61.48-1.04,0-.22-.05-.43-.15-.62-.1-.19-.27-.38-.51-.56-.24-.18-.57-.36-.99-.54l-.63-.27c-.57-.24-1.01-.5-1.32-.78s-.52-.56-.63-.85c-.11-.29-.17-.6-.17-.92,0-.49.12-.93.36-1.3s.59-.67,1.04-.88c.45-.21.98-.31,1.6-.31.46,0,.87.03,1.23.1s.64.16.85.28c.06.04.08.09.08.15v.92s-.01.05-.04.06-.05.02-.08,0c-.24-.17-.55-.29-.91-.36-.36-.07-.75-.11-1.15-.11-.35,0-.65.04-.9.13-.24.08-.43.19-.57.32-.14.13-.24.28-.29.43-.06.16-.08.31-.08.46,0,.21.05.4.14.58.09.18.26.36.5.53.24.17.57.34.99.53l.59.25c.57.23,1.02.49,1.34.76.33.28.56.57.69.89.13.32.2.65.2.99,0,.5-.12.95-.36,1.34-.24.39-.6.7-1.08.92-.48.22-1.05.34-1.74.34Z"/>
      <path class="cls-2" d="M71.62,411.75h-3.56l-1.01,2.83c-.02.06-.06.08-.11.08h-.95c-.08,0-.11-.03-.08-.1l3.07-8.51c.02-.06.03-.12.05-.2.01-.08.03-.2.05-.38,0-.05.02-.07.07-.07h1.36s.07.02.08.06l3.29,9.1c.03.07,0,.1-.06.1h-1.08c-.06,0-.09-.03-.1-.08l-1.02-2.83ZM68.37,410.67h2.93c-.06-.19-.14-.42-.24-.71-.1-.28-.21-.6-.33-.94s-.23-.68-.35-1.01c-.12-.33-.22-.64-.31-.93-.09-.29-.17-.53-.24-.73h-.01c-.07.3-.18.69-.34,1.17-.16.48-.34.99-.54,1.54-.2.55-.38,1.08-.56,1.6Z"/>
    </g>
  </g>
  <g id="pre">
    <rect class="cls-3" x="36" y="429.49" width="12.59" height="12.59"/>
    <g class="txt">
      <path class="cls-2" d="M53.2,440.63v-9.07c0-.07.02-.1.06-.1.11,0,.25,0,.41,0,.16,0,.35,0,.55-.01.21,0,.42,0,.65-.01.23,0,.46,0,.68,0,.63,0,1.18.08,1.62.25.45.16.82.38,1.11.66.29.28.5.59.64.95.14.35.21.72.21,1.11,0,.71-.17,1.3-.5,1.77-.34.47-.78.81-1.34,1.03-.56.21-1.18.32-1.85.32-.3,0-.52,0-.66,0-.14,0-.28,0-.43,0v3.12c0,.07-.03.1-.08.1h-.98c-.06,0-.08-.02-.08-.07ZM54.35,432.48v3.96c.12,0,.25.02.4.02.14,0,.37,0,.67,0,.47,0,.89-.07,1.27-.2.38-.14.69-.35.93-.64.24-.29.36-.7.36-1.21,0-.42-.1-.78-.31-1.07-.21-.29-.49-.52-.84-.67-.35-.15-.77-.23-1.25-.23-.29,0-.54,0-.75.01-.21,0-.37.02-.48.03Z"/>
      <path class="cls-2" d="M60.46,433.9h.9c.07,0,.11.03.13.1.03.05.05.13.06.25.01.12.03.24.04.37s0,.25,0,.35c.25-.34.58-.62.99-.85.41-.23.83-.35,1.27-.35.06,0,.1.03.1.08v1.02c0,.06-.03.08-.1.08-.32,0-.62.04-.92.13s-.55.22-.78.37c-.22.15-.39.32-.5.52v4.65c-.01.06-.04.08-.1.08h-.98c-.07,0-.1-.03-.1-.1v-4.83c0-.21,0-.42-.01-.64,0-.22-.02-.44-.03-.64,0-.21-.02-.37-.04-.5,0-.03,0-.05.01-.06,0-.01.03-.02.06-.02Z"/>
      <path class="cls-2" d="M68.76,437.44h-3.05c0,.45.08.85.25,1.2s.43.64.78.85c.35.21.79.32,1.31.32.3,0,.6-.03.9-.08.3-.06.58-.15.85-.29.05-.04.07-.02.07.06v.8s0,.08-.01.09c0,.01-.03.03-.06.05-.23.11-.51.21-.83.29-.32.08-.7.12-1.14.12-.61,0-1.12-.1-1.53-.3-.42-.2-.75-.47-1.02-.8s-.45-.71-.57-1.12-.17-.83-.17-1.25c0-.49.07-.95.21-1.39.14-.44.34-.82.61-1.16s.59-.59.97-.78c.38-.19.81-.29,1.29-.29.5,0,.93.09,1.28.27.35.18.63.41.84.69.21.29.37.59.47.92.1.33.15.64.15.94,0,.18,0,.33-.01.45s-.02.21-.04.28c0,.07-.04.1-.11.1-.06,0-.16,0-.31.01-.15,0-.33.02-.52.02-.19,0-.39,0-.6,0ZM65.73,436.57h3.29c.11,0,.18,0,.21-.03,0-.02.01-.04,0-.07,0-.03,0-.05,0-.07,0-.13-.02-.29-.07-.48-.05-.19-.13-.37-.25-.56s-.29-.34-.5-.46c-.21-.12-.49-.18-.83-.18-.38,0-.7.09-.97.27s-.46.41-.6.69c-.14.28-.23.58-.28.89Z"/>
      <path class="cls-2" d="M77,440.84c-.49,0-.93-.05-1.34-.14s-.75-.22-1.02-.38c-.06-.04-.08-.1-.08-.18v-1.01s0-.05.03-.06c.02,0,.04,0,.07.01.37.25.77.43,1.19.53s.82.15,1.2.15c.67,0,1.17-.13,1.48-.4.32-.27.48-.61.48-1.04,0-.22-.05-.43-.15-.62-.1-.19-.27-.38-.51-.56-.24-.18-.57-.36-.99-.54l-.63-.27c-.57-.24-1.01-.5-1.32-.78s-.52-.56-.63-.85c-.11-.29-.17-.6-.17-.92,0-.49.12-.93.36-1.3s.59-.67,1.04-.88c.45-.21.98-.31,1.6-.31.46,0,.87.03,1.23.1s.64.16.85.28c.06.04.08.09.08.15v.92s-.01.05-.04.06-.05.02-.08,0c-.24-.17-.55-.29-.91-.36-.36-.07-.75-.11-1.15-.11-.35,0-.65.04-.9.13-.24.08-.43.19-.57.32-.14.13-.24.28-.29.43-.06.16-.08.31-.08.46,0,.21.05.4.14.58.09.18.26.36.5.53.24.17.57.34.99.53l.59.25c.57.23,1.02.49,1.34.76.33.28.56.57.69.89.13.32.2.65.2.99,0,.5-.12.95-.36,1.34-.24.39-.6.7-1.08.92-.48.22-1.05.34-1.74.34Z"/>
      <path class="cls-2" d="M83.86,440.84c-.49,0-.93-.05-1.34-.14s-.75-.22-1.02-.38c-.06-.04-.08-.1-.08-.18v-1.01s0-.05.03-.06c.02,0,.04,0,.07.01.37.25.77.43,1.19.53s.82.15,1.2.15c.67,0,1.17-.13,1.48-.4.32-.27.48-.61.48-1.04,0-.22-.05-.43-.15-.62-.1-.19-.27-.38-.51-.56-.24-.18-.57-.36-.99-.54l-.63-.27c-.57-.24-1.01-.5-1.32-.78s-.52-.56-.63-.85c-.11-.29-.17-.6-.17-.92,0-.49.12-.93.36-1.3s.59-.67,1.04-.88c.45-.21.98-.31,1.6-.31.46,0,.87.03,1.23.1s.64.16.85.28c.06.04.08.09.08.15v.92s-.01.05-.04.06-.05.02-.08,0c-.24-.17-.55-.29-.91-.36-.36-.07-.75-.11-1.15-.11-.35,0-.65.04-.9.13-.24.08-.43.19-.57.32-.14.13-.24.28-.29.43-.06.16-.08.31-.08.46,0,.21.05.4.14.58.09.18.26.36.5.53.24.17.57.34.99.53l.59.25c.57.23,1.02.49,1.34.76.33.28.56.57.69.89.13.32.2.65.2.99,0,.5-.12.95-.36,1.34-.24.39-.6.7-1.08.92-.48.22-1.05.34-1.74.34Z"/>
      <path class="cls-2" d="M93.59,437.79h-3.56l-1.01,2.83c-.02.06-.06.08-.11.08h-.95c-.08,0-.11-.03-.08-.1l3.07-8.51c.02-.06.03-.12.05-.2.01-.08.03-.2.05-.38,0-.05.02-.07.07-.07h1.36s.07.02.08.06l3.29,9.1c.03.07,0,.1-.06.1h-1.08c-.06,0-.09-.03-.1-.08l-1.02-2.83ZM90.34,436.71h2.93c-.06-.19-.14-.42-.24-.71-.1-.28-.21-.6-.33-.94s-.23-.68-.35-1.01c-.12-.33-.22-.64-.31-.93-.09-.29-.17-.53-.24-.73h-.01c-.07.3-.18.69-.34,1.17-.16.48-.34.99-.54,1.54-.2.55-.38,1.08-.56,1.6Z"/>
    </g>
  </g>

  <!-- Countries -->
  <path id="_somaliland" d="M481.9,261.2l3.5,2.4h1c0,0,8.8-3.1,8.8-3.1l1,3.2-.7,2.7-1.9,1.5-4.7-.3-6.8-4.2-.2-2.3h0Z"/>
  <path id="ae" d="M497.7,226.5l.8,3,8.5.8.6-6.2,1.6-.9.4-2.3-2.7.8-3,4.5-6.3.3h0Z"/>
  <path id="af" d="M515.1,193.8l1.4,10.8,3.4.8.3,1.9-2.5,2,4.6,3.7,8.9-3.2.7-3.8,5.6-3.5,2.1-8.1,1.6-1.7-1.7-2.9,5.4-3.3-.7-1-2.5.2-.2,2.3h-3.4s0-3.1,0-3.1l-1.1-1.3-1.8,1.6v1.5c0,0-2.7,1-2.7,1l-5.1-.3-6.6,6.9-5.9-.5h0Z"/>
  <path id="al" d="M419.9,178.8v4l1.1,2.2h.8c0,0,1.4-2.7,1.4-2.7l-.8-1.1-.3-2.8-1.1-1-1.1,1.5h0Z"/>
  <path id="am" d="M476.7,179l4.1,5.4-1.2,1.4-2.9-.5-3.6-3.3.2-2.1,3.5-.9h0Z"/>
  <g id="ao">
    <path d="M406.6,305.9l2.9,11v3.5c0,0-4.4,4.6-4.4,4.6l-.6,7.5h16.6c0,.1,5.4,2.1,5.4,2.1l4.5-.6-2.6-3.3v-9.3s5.1-.2,5.1-.2v-3.6l-4.1-.2-.8-8.6h-1.7s-.9-.8-.9-.8h-1c0,0-1.4,2.7-1.4,2.7h-5.3l-1.2-1.2.4-1.7-1.4-2.1h-9.3Z"/>
    <path d="M404.8,302.9l1.5,2,1.9-1.8-.6-1.9h-.5s-2.4,1.8-2.4,1.8h0Z"/>
  </g>
  <g id="ar">
    <path d="M248.3,359l1.7,1.6-6.4,9.5-2.2,2.5.8,10.8,4.9,6-4.1,7.2-3.1,1.3h-3.6l1,5.6-5.6,1.9,1.3,4.7-3.4,10.7,4.1,3.4-2.2,5.5-3.8,6,2,4.2-4.9.8-4-5-.7-15.4-6.3-26.2,1.9-9.2-4-11.7,2.7-15.2,2.5-2.9-.6-2.2,3.2-2.9,7.1.5,3.9,4.2h4.6c0,0,4.7,2.9,4.7,2.9l-1.4,3.2.3,3.2,6.6-.3,3.1-4.7h0Z"/>
    <path d="M234,446l.2,5,3.8-.3,3.2-2.1-5.5-1.1-1.8-1.3h0Z"/>
  </g>
  <path id="at" d="M399.7,161.9l-.6,1.2.5.8,2-.4h1.7l1.9,1.6,4-.7,2.9-1.7.7-1.2v-1.5c-.1,0-2.7-2-2.7-2h-3.5s-.3,2-.3,2l-3.7,1.8h-2.9Z"/>
  <g id="au">
    <path d="M642.2,367.5l-.3,21.9-3.4,2.5-.3,2.2,4.6,3.1,11.3-2.2h5.8l2.1-3.1,12.9-2.5,9.2,2.8-.6,3.7,1.2,3.7,7.1-1.2.3,1.9-4.6,3.4,1.5,1.2,3.4-1.2-.9,10.2,6.4,4.9,3.7-1.2,1.8,1.9,10.7-1.5,10.1-16.4,3.7-.9,7.4-13.6,1.8-11.7-4.6-5.9,1.8-1.2-3.7-11.4-4-2.8.6-15.4-3.7-2.8-.9-8.7h-1.8l-6.1,20.4-3.4.3-7.7-7.7,4.3-11.4-8-1.5-8.9,2.5-2.5,7.1-4,.9-.3-4.9-16.3,9.9.3,3.7-2.5,3.4h-6.1l-13.2,5.6-4.6,12.4h0Z"/>
    <path d="M698,426.5l-1.5,6.2.3,4.3,4.6-.3,5.2-8-8.6-2.2h0Z"/>
  </g>
  <path id="az" d="M478.2,177.1l-.9,1.5,4.1,5.3,1.4-.5,2.3,2.4,1-4.3,2.5.4v-1.2c-.1,0-4.3-3.6-4.3-3.6l-.8,2.1-5.4-2.2h0Z"/>
  <path id="ba" d="M411.9,169.5l-.3.5,5.8,6,2.1-3.1v-1.2c0,0-1.9-2.3-1.9-2.3h-5.7Z"/>
  <path id="bd" d="M585.5,216.3l-1.1,2,2.9,5.6v4.4c0,0,.6,1.2.6,1.2h3.4c0,0,2-1.8,2-1.8l1.4.9.3,2.7,1.1-.7v-3.4c0,0-.9-.1-.9-.1l-.6-2.9h-2.4c0,0-.6-1.7-.6-1.7l1.5-2v-1s-4.2,0-4.2,0l-3.4-3.1h0Z"/>
  <path id="be" d="M383.3,150.1l-.6,1.4,5.9,3.9h.4c0,0,.4-1,.4-1l.8-.6-1.3-1.5h-.9l-1.3-1.4-3.5-.8h0Z"/>
  <path id="bf" d="M373.7,251.9l3.1-.2,5.2,7.3-4.8,3.6-3.5-.9h-4.7c0,0-.8,2.8-.8,2.8l-3.9.2-1.1-1.5,1.4-4.4,9-6.8h0Z"/>
  <path id="bg" d="M426.3,172.5v4.3c.1,0,1.6,3,1.6,3h5.5c0,0,2.5-1.6,2.5-1.6l2.4-1-.6-2.8.5-1.5-1.2-.6h-1.7c0,.1-1.3,1.5-1.3,1.5h-5.5s-2.1-1.3-2.1-1.3h0Z"/>
  <path id="bi" d="M447.7,296.8h3.7c0,0-1,3.2-1,3.2l-.9.8h-1.1l-.8-2.2.2-1.8h0Z"/>
  <path id="bj" d="M380.7,273.7h1.8v-5.2c.1,0,2.4-3.4,2.4-3.4v-5.9c-.1,0-2.2,0-2.2,0l-3.6,2.8,1.5,2.9v8.8h0Z"/>
  <path id="bn" d="M658.3,273.5l-2.5,3,2,.6,1.1-1.6-.7-2.1h0Z"/>
  <path id="bo" d="M207.9,319.8l7.1-3.1,2.4.2,1.6,6.5,10.8,3.6,1.8,5.5,4.5.6,1.9,4.7-1.3,4.3-7.3.6-2.7,6.9h-5.7c0-.1-1.8-.4-1.8-.4l-3.3,3.2-1.6-.2-5.6-13,1.5-2.3.5-9.2-1.4-5.5-1.4-2.5h0Z"/>
  <path id="br" d="M255.9,376.9l5.4-10.4.2-8.7,10.1-6.5h5.6l4.4-7.5.8-14.4-1.8-3.9,10.7-9.8.4-10.8-14.5-7.1-17.5-5.5-8.3-.8,2.2-4.7-.6-7.1-1.8-.6-2.7,5.3-1.4,1.8-3.6-1.6-12.1,4.3-4-5.1.6-5.3-3.8,3.9-4.2-2.3-.4.6v1.8s3.6,1.9,3.6,1.9l-5.4,5.7h-3.4s-3.5-3.6-3.5-3.6h-3.9c0,.1-.5,4.3-.5,4.3l2.3,2.7-2.7,8.5-3.1.2-5,3.1-1.2,6.1,4.3,4.6.8-.9,3-.8,2.6,4.3,7.4-3.2,2.9.2,2,7,10.5,3.3,1.8,5.6,4.5.5,2.1,5.3-1.4,4.7,1.9,2.5-.3,3.7,5-.5,4.6,5.8-.4,4.1,2.7,2.3-6.6,10,11.6,6.5h0Z"/>
  <g id="bs">
    <path d="M191.4,221.5l-1.1-.3v2.1c0,0,1.3,1.3,1.3,1.3l.9-1.3-1.1-1.8h0Z"/>
    <path d="M193.5,224.8l-1.5.8,1.4,2,.8-1-.7-1.8h0Z"/>
    <path d="M198.4,226.3h-1.6c0,0,.2.9.2.9l1.2,1.7,1-1.1-.7-1.5h0Z"/>
    <path d="M197.6,224.3l-2.6-1.1-.5-2.6,1-.4,1,2,1,.8v1.3h0Z"/>
    <path d="M195.1,219l-1.3-.3-.3-1.7-1.4-.5.9-.9,1.7.6,1.3.8-.8,2.1h0Z"/>
  </g>
  <path id="bt" d="M585.3,212l1.3,1.8h4.5s-.5-2.5-.5-2.5l-5.4.6h0Z"/>
  <path id="bw" d="M423.8,353l1.9.6-.3,5.3,1.9.3,4.4-4,5.3.6,1.4-3.5,6.7-6.1-8-9.2v-1.5c-.1,0-1-.3-1-.3l-2.4,2.2-6.3.2-.9,7.9-2.5.6v7.1h-.1Z"/>
  <path id="by" d="M425.7,141.3l1.3,2.1-.5,1.7v1.3c0,0,.6,1.6.6,1.6l2.7-1.5h3.3c0,0,2.3,1,2.3,1h5.9l1.7-4.1,1-1.6v-1l-3.7-5.2-3.3-1.3-2.7-.3-2.3.7v2.4c0,0-3.2,4.1-3.2,4.1h-3.2Z"/>
  <path id="bz" d="M161.1,241.6v3.2s.7,0,.7,0l2.5-4.6h-1.7l-1.5,1.5h0Z"/>
  <g id="ca">
    <path d="M121,39.6l1.7,2.6.9,3.5,4.3,1.1,3-3.2,2.6,1.3,7.3.6,5.2-2.2.9,7.2h3v-3l3,.2,7.5,8.9,5,3-2.6,4.1,1.1,1.1,9.7,2,.2,4.3,2.6.4.6-6.5,4.1-1.1,3,4.6,6.5,3,3.2.6,2.2-2.6.2-4.1,3.9-2.4,1.3,3.5-3.4,6.1.4,3,1.9-3,3.9-3.5.2-4.6-2.2-3.5.6-2.8,5.2-2.6,2.4,1.7.4,15.2,3.7-3.2,2.2,1.3-3,5.2,3.9.9,5.6-8.7,4.7,5-1.9,8.9-4.7,2.6-4.5-2.2-8.2,1.7.9,2.8-2.2,3.5-6.7,1.5-7.5,5.9-6.7,8.9-.9,2.8,4.5,1.7,1.7,4.3,6.2,6.3,9.9,4.3-2.2,10-.2,2.8,2.6,1.7,3.4-4.6.4-8.7,5.4-.2,2.6-5,.4-7.6,6.9-13.5,8.6,3,4.5,6.3-1.9,6.3,3.4,2,8.4-5.6,2.4,15.4,7.8,9.3.2,4.8-8.6,2.2-4.1,4.3-8.6-2-4.3-.2-7.5,5.9,4.5-1.1,5.6-1.1,1.1,1.3-1.5,4.8.2,4.3,2.6,1.7,2.6-.6,1.3-2h1.7l-2.8,5.2-5.4.2-2.4,3.5h-3l-.9-2.6,4.3-4.3-5.2,1.7-.2-7.4-1.5-.9-4.5,2-.4,3.7h-10.3l-8.8,6.1-11.8,3.9-1.3-1.7,6-8.9-3.4-3.3-2.2-4.1-4.4-3.3-4.7-.4-8.4-5.9-61.1-10-1-4.1-5.6-5.2v-4.3l.9-3.9-.4-2.2-2.2-2.2-.4-3.5,5.6-3.9-3.4-18.7-4.7-.2-4.3-5.6,23.6-40.2h0Z"/>
    <path d="M99.9,108.5l-1.5,2.8.5,2,1,.6-.2.8-1,.3.3,3,1.1,1.1.9-1-1.1-2.9.7-2.3,1.6-2.2-1.2-2-1-.3h0Z"/>
    <path d="M104.8,125.4l-1.3.5,2.4,2.8.6,3.3,2.4,2.6,2.1-.4v-3.4l-2.5-1.6-3.7-3.9h0Z"/>
    <path d="M237.4,54.2l-1.5,1.5,1.3,2.1,6.3.8-4-4.3-2.1-.2h0Z"/>
    <path d="M160.3,28.6l.2,3.5-6.9,7.1,1.7,5.8,5-1.3,2.9-4.3,7.3-2.7,5.9-.4-4.6-5-2.3,1.7-1.7-.6-1-2.1-2.1-2.1-4.4.4h0Z"/>
    <path d="M169.3,18.3l-1.5,2.7,7.5,2.7,2.7-4.1,1.1,2.7h1.9l3.6-4.1-4.4-1.2-1.7-1.3-2.3,2.3-6.9.2h0Z"/>
    <path d="M182.4,23.7l-5.9,2.5v1.9l7.7,2.9-1.7,1.9,1.1,2.5,4.8-2.1h4l1.9,3.1,3.3-3.3-.8-3.1-2.7,1-.4-3.9,1.3-2.3h-1.3l-2.1,1.3-1,.8.6,2.7-1.5,1.2-2.3-.2-.6-3.5-4.4-3.5h0Z"/>
    <path d="M190.2,17.7l-.6,1.9,3.6,1.7,2.7-1.5-.2-1.2-5.5-1h0Z"/>
    <path d="M193.1,14.5l-2.7,1,.2,1.4,5.9-.4-.2-1.3-3.3-.6h0Z"/>
    <path d="M206,17.7l-.4,1.3-1,1.3v1.9l3.6-.6,3.8,3.3h1.3v-3.3l-3.8-4.3-3.6.2h0Z"/>
    <path d="M215.7,21.6l1.5,1.7-1.3,2.3,1,2.5,4.2-2.3v-1.7l-2.5-2.9-2.9.4h0Z"/>
    <path d="M221.3,17.2l.2,3.1h5.2l1.3,1.2-.2,1.3-4.6.6,3.3,4.4,4.4.8,6.1-2.7-8.8-13.3-2.7,1.7.2,2.3-3.1-1.2-1.3,1.8h0Z"/>
    <path d="M176.6,39l-7.3,1.9-4.2,3.7.4,4.1,7.7,2.3-1.7,3.9-5.6-3.5-1.5,2.9,3.6,2.5-.2,4.1,5.6,1.5,6.7-.4,1.1-2.1,5,5.6,3.4-1.2.6-3.9,2.5,1.7.4-3.9-3.1-1.9.2-12.2-2.7-2.1-2.9,3.9-8-6.9h0Z"/>
    <path d="M200,47.5l-2.5-1.2-1.3,1.7,2.7,4.3.2,4.1,5.7-3.5v-5l2.1-2.1-2.1-1.5h-3.4l-1.3,3.3h0Z"/>
    <path d="M212.3,45.7l-4,3.3,1,4.1h2.5l1.1-2.1,1.7,1.7,1.7-.2,4.6-3.9-8.6-2.9h0Z"/>
    <path d="M211.9,39.4l-1,1.9,4.2,1.5,1.1-1.7-4.4-1.7h0Z"/>
    <path d="M209.4,32l-4.2.6-2.5,2.3,4.6.2-1.3,3.5,1,1.5,1.3-.2,3.3-5.2-2.1-2.7h0Z"/>
    <path d="M216.7,30.7l-2.3.8.4,3.1,3.8,2.5.2,1.9-1.1,1.2.6,3.9,14.8,4.8,4,1.3,4-3.5-4.8-3.9-4.4,1.2-6.1-.6-2.3-2.3-.6-6.4-3.8-1.9-2.3-2.1h0Z"/>
    <path d="M228.8,50.8l-4.2-.4-5,1.9-2.7,3.7.8,10,8.2.4,7.9,3.9,5.6,6.4,4.2-.2-1.1,6-3.8,6.4-4.2,1.9-3.1-.6-1.5-1.3-2.3,3.1,1,3.1,3.3.2,4-1.9,3.4,8.9,8.6,5.6,5.9-7.5-5-8.1,2.9-3.3,4,6.8,7.3-6.4-1.3-2.9-5,1.5-3.4-9.5,3.3-5.4-6.5-6.9-3.6,2.5-3.4-7.5-7.3,1-1.9-9.1-5.9,4.1-.6,5h-3.3l.4-4.4,4.6-6.8h0Z"/>
    <path d="M231.3,32.4v1.7l-4.2,1,1.1,1.9,4.8,1.9,5.4.6,3.8,2.7,3.8-2.1-2.7-2.7h3.4l2.1-2.3,5.2-.8v-1.2l-2.9-1.9.4-2.1,8,1.3,11.9-4.6-4.4-1.3,1.1-1.5h9.2l1.5-1.5-18.6-6.6-4.4-1.5-4.8,3.5-5.4-4.4-2.9-.2-.6,3.7-3.6-3.3-4.2,1.3.8,2.1,6.3,1.4-.4,3.1,3.4,2.1,8.4-2.1.2,2.9-6.9,3.3-4.2-3.3-3.8.4,3.8,5.4-1.9,1-2.9-2.5-2.1,1.3,1.9,3.7h3.3l-.8,3.5-2.7-.4-3.4-3.7-2.3.4h0Z"/>
    <path d="M214.2,85.6l-3.7,4.6-.2,5.1,3.2-1.8h3.9l2.7,2.5,2.5-2.1-8.5-8.3h0Z"/>
    <path d="M258.7,145.4l-9.1,8.7.9,2.1,11.2,4.1,1.6-2.8-.9-4.6-3.7.5-2.1-2.3,3.4-3.4-1.4-2.3h0Z"/>
  </g>
  <path id="cd" d="M407.3,305l8.9-.2,1.8,2.6v1.9c0,0,.6.6.6.6h4.4l1.3-2.5h1.8l.7.7h2.5c0,0,.7,8.6.7,8.6h4.3v.8l11.5,5.2.5,1h2.4l-.3-3.6-4.4-2.1.3-2.8,1.9-4.4h4.3c0-.1-3.7-12.4-3.7-12.4v-5.2c0,0,5.9-9.1,5.9-9.1v-1.3c0,0-.8-.5-.8-.5v-2.5s-1,0-1,0l-1.1-1.4-17.6-.8-3.2,3.1-5.3-3.5-1.9,1.1-1.3,11.3-3.3,2.6-1,2.3.2,3.4-6,4.9-1.6-.7.2.9-1.8,1.7h0Z"/>
  <path id="cf" d="M412.7,277.6l4,4.4,1.6-2.1h2.5c0,.1.5-1.9.5-1.9l2.5-1.6,5.2,3.6,3-3,11.6.5-10.7-11.1,1.4-.9.2-2-2.4-1.1h-3.6l-5.8,5.7-.2,2.4h-4.6c0-.1-.1.9-.1.9l-3-.3-2.7,5.1.6,1.4h0Z"/>
  <path id="cg" d="M408.7,285v1.3c0,0,4.1.1,4.1.1v10.7c.1,0-3.6-.1-3.6-.1l-2.2-1.7-1.7,1v.5c0,0,.8.4.8.4l.3,2.2-2.3,2,.5,1.1,2.6-2h1.2l.4,1.2,1.6.7,5.3-4.5v-3.3c-.1,0,1-2.7,1-2.7l3.4-2.5.9-8.5h-2.4s-2.8,3.8-2.8,3.8l-7,.2h0Z"/>
  <path id="ch" d="M393,161.2l-3.8,4v.4c0,0,1.6-.5,1.6-.5l1.4,1.9,2.4-.8,1.6,1.3.7-.4,2-3.1-.5-.5h-2c0,0-1-2-1-2l-2.4-.3h0Z"/>
  <path id="ci" d="M357.7,280l3.7-2.6,4.6-.8,4.7,1-2.4-3.6-.7-2.2.7-6.5-4.2.2-1.9-1.8h-4c0,.1-1.9.4-1.9.4l.2,4.4-1,.4-1.2,2.2,3.1,3.6.3,5.3h0Z"/>
  <g id="cl">
    <path d="M230.6,441.9l-3.7,8.1,6.4.7v-5.4c.1,0-2.7-3.4-2.7-3.4h0Z"/>
    <path d="M229.4,440.6l-2.8,3.1-.3,3.6-5.4-3-5.7-8.2-1.7-2.9,2.4-3-.2-3.8-2.7-1.1-2.1-1.6.4-2.1,2.8-.8.6-12.4-4.4-2.5-2.8-64.5.7-1.3,5.6,12.8h1.8s.6,2.1.6,2.1l-2.4,2.9-2.7,15.4,3.9,11.9-1.8,9,6.3,26.5.7,15.5,4.5,5.2,4.8-.7h0Z"/>
    <path d="M210.9,408.2l-1.1,1.7.6,2.9h1.1c0,.1.6-3.6.6-3.6l-1.1-1h0Z"/>
  </g>
  <path id="cm" d="M397.3,277.8l2.8,2.6-.2,4,15.3-.4,1.2-1.4-4.4-4.7-.6-1.7,2.8-5.2-1.9-3.5-1.6-.9v-1.8l1.8-1.2v-5.5c.1,0-1.4-.2-1.4-.2v2.9s-6.4,12-6.4,12l-3.9.2-2.7,1.8-.8,2.9h0Z"/>
  <g id="cn">
    <path d="M563.7,144.5l-3,7.5-4.1-.2-4.3,9.5,3.7,4.7-7.6,10.5-3.9-.7-2.6,3.3.6,2,3,.2,1.5,3.5,3,.7,9.3,12v6.1l4.6,2.8,5-.9,6.3,3.7,7.6,2.2,3.7-.4,4.1-.4,8.7-5.7,2.8.4,1.1,2.6,2.4.7,3.3,4.8-2.2,4.8,1.3,3.3,3.7,1.3.6,3.9,4.3.4.6-2,6.3-3.3,3.9.2,4.6,5,3-1.3,2,.2.9,2.4,1.5.2,2.2-3.1,8.7-3.3,7.8-9.4,2.6-9-.2-5.9-3.3-.7,2-2.2-.4-3.5-8.3-8.3v-4.2l2.4-3.1,2.4-1.1.2-2.4h-6.1l-1.1,3.3-2.8-.7-3.5-3.7,2.2-5.7,3-3.3,2.8.2-.4,5,1.5,1.3,3.7-3.7,1.3-.2-.4-2.8,3.5-4.2,2.6.2,1.5-4.8,1.8-.9.2-3-1.7-1.8v-4.7c-.1,0,3.2-.2,3.2-.2l-.2-12.2-2.3,1.4-.9,3.1h-3.9s-11.3-6.4-11.3-6.4l-8.2-9.8h-8.3c0,0-2.1,1.7-2.1,1.7l2.7,6.1-.9,5.8-3.3,1.4h-1.9c0-.1-.1,5.5-.1,5.5l2,.4,3.5-1.5,4.6,2.2v2.2l-3.3.2-2.6,5.7-2.4.2-8.5,11.2-8.9,3.9-6.1.4-4.1-2.8-5.9,3.1-6.3-2-1.5-4.2-10.6-.7-5.6-9.2h-2.4l-1.9-4.3-2.3-.2Z"/>
    <path d="M641,231.1l-2.1.6-1.5,1.8,1.2,2.4,1.8.2,2.1-1.8.5-2.4-2.1-.7h0Z"/>
  </g>
  <path id="co" d="M203.6,256.7l-1.8-.2-11.8,9.7-1.2,3.4-1.6.2.7,7.5-4.1,10.1,4.5,3.8,5.7.4,3.9,5.8,5.7.2-.2,4.3h2.1l2.3-7.9-2.1-2.7.5-5,4.5-.4-.5-11.7-10-3.2-2.3-6.3,5.7-7.9h0Z"/>
  <path id="cr" d="M172.1,261.2l1.2,2.4,1,1.3-1.3,3.9-2.5-1.8-4.1-3.8v-2.5l5.7.4h0Z"/>
  <path id="cu" d="M175.1,228.3v1.1h4.6c0,0,2.2-1.2,2.2-1.2l.3.9,4.5,1.1,4,3.6-.9,1.3.2,1.4,3.3.8,3.3-1.5,1.5-1.5-2.2-1.1-11.2-6.6-3.9-.4-5.8,2h0Z"/>
  <g id="cv">
    <path d="M319.2,248.7l-1.6.9,1.2.9,1.4-.7-.9-1.2h0Z"/>
    <path d="M323.3,250.6l-1.1,1,.8,1.4,1.8-.8-1.5-1.5h0Z"/>
    <path d="M320.9,253.2l-1.4.8,1.5,2,1.2-.6-1.3-2.2h0Z"/>
  </g>
  <path id="cy" d="M453.8,196.2l1.1.8-3.3,3.1h-1.6c0,0-1.2-.9-1.2-.9l.2-1.5,2.4-.2,2.4-1.3h0Z"/>
  <path id="cz" d="M406.4,157.3h3.8l2,1.5,3.8-3.2-3.7-2.6-3.6-1.8-2.5.5-3.4,2.2,3.5,3.5h0Z"/>
  <path id="de" d="M391.5,142.6l3.1-.5v-2.2l2.6-.4,1.4,1.4,1.5.2,2.3-1,2.1.6,1.8,1.6.3,6,1.8,2.4-2.4.3-4,2.5.3.8,3.6,3.4-.3,1.7-3.3,1.7h-3.1c0,0-.8,1.7-.8,1.7h-1.6l-.8-1.7-2.7-.7v-2.8c0,0-1.5-.8-1.5-.8v-1.9c.1,0-.3-1.3-.3-1.3l-2-1.8.4-2.9,2.2-1-.7-5.4h0Z"/>
  <g id="dk">
    <path d="M396.4,128.5l-3.6,4v2.6c-.1,0,1.5,4.3,1.5,4.3l2.6-.5-.3-3.5,1.8-2v-1.5s-1.3-3.2-1.3-3.2h-.6Z"/>
    <path d="M398.2,135.8l-1.1.2v1.6l1.1.9,1-.2-.2-1.5-.8-.9Z"/>
    <path d="M401.5,134.3l-.9.2-1.1,1,.4,2,1.3.5-1.3.5-.3.7h2l.6-1.1-.8-.4.2-1,.9-1.2-.2-1-.9-.2Z"/>
  </g>
  <path id="dj" d="M478.2,258.2l-.5,2.9h3.4c0,0,0-4.3,0-4.3l-1.3-.8-1.7,2.2h0Z"/>
  <path id="dm" d="M225.5,243.8l-.8,1.6.9,1.2,1.1-1-1.3-1.9h0Z"/>
  <path id="do" d="M211.7,239.9l-4.6-3-2.9-1-.6,5.5h.6s.8,1.4.8,1.4l1-1.1,2.9-.8,2.5.5.3-1.5h0Z"/>
  <path id="dz" d="M393.9,194.2l-3.5-1.2-14.7,2.8-3.2,2.4,2,10.1-5.8.2-3.5,5.6-8.4,2v4.1s27.6,21,27.6,21l4.7.4,15.7-12.2-1.6-2-2.9-.4-1.8-3v-12.2l-1.2-1.2.2-3.2-3.1-3.2-.4-3.4,1.4-1-.6-3.6-.8-2.3h0Z"/>
  <g id="ec">
    <path d="M183.2,287.8l-4.1,2.5-.3,3.8-.8,1.2,2.6,2.5-1.1,1.2.3,3.1,4.6,1.1,7-8.3v-2.9s-3.4-.2-3.4-.2l-4.7-4.1h0Z"/>
    <path d="M152.8,289.9l-.5,2.4-1,1,.7,1.2,1.8-.7.8-1.5-.5-1.5-1.2-.9h0Z"/>
  </g>
  <g id="ee">
    <path d="M431.8,121.7l-4.8-.2-3.1,1.9v1.4s1.9,1.9,1.9,1.9l6.2,1-.2-6h0Z"/>
    <path d="M421.5,122.5l-1.3.4,1.3.2.6.7.7-.9-.7-1.2-.6.7Z"/>
    <path d="M422,124.2l-1.9.8-.6,1.1.6.7,2.4-.9,1.1-.8-1.6-1Z"/>
  </g>
  <path id="eg" d="M435.4,207.6h2.3c0,0,4.5,1.3,4.5,1.3h2.1c0,0,2.6-2.2,2.6-2.2h1.2l2.2,1.2h3.4s1.8,5.1,1.8,5.1l.5,1.7.5,2.5-.9.6-1.5-.7-1.7-5.5h-1.5c0-.1-.1,1.8-.1,1.8l1,3.2,8.1,10,.2,4.3-2.4,2.7-22.2-.3-.3-25.9h0Z"/>
  <path id="er" d="M465.5,252.3l-.2-5.1,3.4-4,.9.7,1.7,5.6,8.1,6-1.5,1.8-5.9-5.1h-6.5Z"/>
  <g id="es">
    <path d="M371.8,174.7h-11l-2.2-1h-1.1c0,0-1.3,2.8-1.3,2.8l.5,2.8,4.2.4.5,1.8-1.8,10.3v1.9c0,0,3.1,1.6,3.1,1.6l3.4.2,6.9-1.7,3.4-4.2v-4.3c0,0,6-5.4,6-5.4l.3-2.4h-5.4c0,0-5.4-2.7-5.4-2.7h0Z"/>
    <path d="M343.5,216.9l-1.5.9.7.7.8-1.6h0Z"/>
    <path d="M338.2,217l-1.9.5.9,1.4h1.4l-.5-1.9h0Z"/>
    <path d="M333.8,215.6l-1.2,1.2,1.6,1.4.9-2.1-1.4-.5h0Z"/>
    <path d="M382.8,185.3l-1.4.5.3,1.2h2l.8-.9-1.8-.8h0Z"/>
  </g>
  <path id="et" d="M459.2,267l6.3-14h6.2s5.5,4.8,5.5,4.8l-.4,4h4.3l.4,2.4,7,4.2,4.3.2-8.2,8.8-11.2,3.4h-2.8l-4.9-4.2-2-.8-3.8-5.6h-2.5s-.3-2.5-.3-2.5l1.9-.6h0Z"/>
  <path id="fi" d="M422.3,98.6l1.8.8,1.1,2.1-1.1,1.4-5.5,6.1-1,3.2,1.3,4.6,4.3,3.2,5.7-2.7,4.6-.6,4.3-6.9-3.2-7.5-3-7.2.5-4.6-1.9-.3-.5-3.4-2.6-4.2-2.8,2-1.1,4.6-3-1.8-4.2-1-.9,1.1,1.6,1.5h2.9c0,0,2.4,3.8,2.4,3.8l.4,6.1h0Z"/>
  <g id="fk">
    <path d="M250.4,436.8l-2.3-.2-2.3,1.5,1.6,1.8,2.9-3.1h0Z"/>
    <path d="M252.7,435.7l-.8,2.4-2.1,1.9v.6c.1,0,3.8-1.4,3.8-1.4l1.5-1.9-2.4-1.6h0Z"/>
  </g>
  <g id="fr">
    <path d="M382.2,152l-1.9.5-3.8,4.2h-1.1c0,0-1.5-1-1.5-1l-1,.2-.8,2.4-5.6.2.2,1.2,3.8,2.5,4.4,3.5v4.2c0,0-2.4,4.2-2.4,4.2l5.1,2.5,5.2.2,1.6-1.9h3.3c0,0,.9.9.9.9l3.3-.2,1.7-2.2-2.1-2.5-.2-1.6.5-1.8-1.1-1.5-1.8.5-.2-1.4,4.1-4.5v-2.7l-2.3-.8-1.4-1-6.6-4.2h0Z"/>
    <path d="M245.4,275.7l5.1,3.2-2.6,5.3-1,1.2-2.8-1.6v-5.7c0,0,1.4-2.3,1.4-2.3h0Z"/>
    <path d="M509.3,345.3h-2c0,.1-.1,1.9-.1,1.9l1.3.3,2-.9-1.2-1.2h0Z"/>
    <path d="M486.1,321.1l.7,1.5h1.1l.5-1.9-2.2.4h0Z"/>
    <path d="M228.1,248.2l-.9.8.7,1.4,1.3-.4-1.1-1.8h0Z"/>
    <path d="M397.3,176.4l-1.7,1.7-.2,1.5,1.4.8h.5c0,0,.3-2.3.3-2.3l-.4-1.8h0Z"/>
    <path d="M223.3,242.5l-1.3.5.5,1.1,1.5-1-.3-.3-.4-.4h0Z"/>
  </g>
  <path id="ga" d="M404.7,285.1v2.2c-.1,0-5-.1-5-.1l-3,5.8,7,7.7,1.7-1.5v-1.5c0,0-1.2-.6-1.2-.6v-1.1l2.7-1.7,2.4,1.8h2.6c0,0,0-9,0-9l-4.2-.2v-1.9c0,0-3,0-3,0h0Z"/>
  <g id="gb">
    <path d="M369.9,126.4l-1.6,2.4.6,1h3.6v1.6l-1,1.3.6,3.4,2.1,4,1.6,3.7,2.5,1,1.1,1.9-.2,1.8-1.6,1-.2.8,1.1.6-1,1.3-2.2,1-4.3-.5-6.7,3-2.2-1.1,6.3-3.7-.8-.5-3.3-.3,2.1-3,.3-2.6,2.7-.3-.5-5-3.2-.2-1-1.1.2-3.7-1.9.2,1.9-6.4,3.5-2.6,1.1,1.1h0Z"/>
    <path d="M363.2,137.1l-2.9.3-.2,2.6,1.9,1.3,2.1-.5.8-1.4-1.7-2.2h0Z"/>
  </g>
  <path id="ge" d="M464.4,174l2.8,3.7,3.5,1.6h2.2s3.7-1,3.7-1l.9-1.5-11-4.1-2.2,1.3h0Z"/>
  <path id="gh" d="M368.3,271.6l1,2.3,2.5,4h1.4c0,0,3.8-2.2,3.8-2.2l-.3-12.4-3-.9h-4.1c0,.1-1.3,9.2-1.3,9.2h0Z"/>
  <g id="gl">
    <path d="M261.8,40.8l-1.2,1.9,2.1,2.1-.9,2.1,3.1,4,3.8-1.2,4.9-.5,5.6,6.1,3.8,10.1-3.1,6.3,4.2-.7,2.4,1.4.2,3.1-5.2.2,2.8,2.8,3.5.7-7.8,10.3-.9,6.3,1.6,5.2-1.2,3.1,2.1,6.6,4,4.5,1.2-.2,2.6-.7.2,3.8,1.6,2.4,3.1-.2,2.4-8.7,7.1-8.7,10.6-4.2,6.6-8.2,3,1.4h6.3l5.2-5.2,6.3-2.6.7-4-4-3.5-3.5-1.2-1.9-4.9,4.5-2.6,7.1,3.8,2.4-2.6-3.8-2.1,8-10.8-1.4-4.7-3.8-.2,1.4-4.2,4.7-2.1,9.6-8.5-2.8-3.1-10.8.9-5.6,5.6,3.3-7.3-3.8-.9-2.1,3.8-3.1-2.6-8.5.9,2.4-3.8,13.9-.5-3.5-4.7-15-2.8-6.1.9.2,3.1-6.3-2.1.2-2.1-4.5.9-.9,2.4,4.7,1.6-4.9,3.5-3.5-4-4.9-1.4-.7,3.8h-4.9l-1.9-4-7.8-1.2-4.2,2.1-.2,2.8-5.4-.7-3.3,1.4.2,3.3v1.6l-6.1,1.2-2.8-1.9-1.9,3.1,2.8,3.1,5.9-.7.5,1.9-4.5,2.1-4-1.9h0Z"/>
    <path d="M280.6,77.5l1.4,2.1-.7,2.6h-1.4l-1.9-2.1.5-1.6,2.1-.9h0Z"/>
    <path d="M339.4,71.6l4,1.2-.2,3.3-4.2-2.1-.9-1.2,1.4-1.2h0Z"/>
  </g>
  <path id="gm" d="M336,255.4v1c-.1,0,5.9,0,5.9,0l.3-.9v-.9c-.1,0-1.9.7-1.9.7l-4.3.2h0Z"/>
  <path id="gn" d="M339,263.7l2.6,4,3.4-3,3.5-.2,2.9,3.9,2.5,1.6.9-1.8.8-.5v-4c0,0-1.7-4.7-1.7-4.7l-5.1.6-6.3-.5v1.6s-3.7,2.9-3.7,2.9h0Z"/>
  <g id="gq">
    <path d="M396.4,280.5l-.4,1.7,1.2.6,1.1-.9-.4-1.8-1.5.3h0Z"/>
    <path d="M400,285.1v1.2c0,0,3.9.2,3.9.2v-1.4c0,0-3.9,0-3.9,0h0Z"/>
  </g>
  <g id="gr">
    <path d="M422.2,185.6v1.1c0,0,3.9,2,3.9,2l1.9.7-1,1.1-2.2.2-.3,1,.8,1.7,2.5,1.3h1.1c0,0,.1-2.9.1-2.9l1.6-2-4.5-5.3.6-1.8h1s1.6,1.2,1.6,1.2l1-.5.3-1.8,3.7.5,1.1-3.2-2,1.4h-5.7c0-.1-3.7,1.8-3.7,1.8l-1.9,3.3h0Z"/>
    <path d="M430.9,196.9h1.4s.6.9.6.9h2l1.4-.5.5.6-.9,1.2h-4c0,.1-.7-.8-.7-.8l-.8-.5.5-.9h0Z"/>
  </g>
  <path id="gt" d="M152.7,249.5l5.1,3.8,5.2-6.4-.9-1.3h-1.8v-3.8l-1.3-.8-4,1.2,1.5,3.5-3.9,3.9h0Z"/>
  <path id="gw" d="M337.4,260.8l1.2,2.4,3.4-2.9v-.9s-4-.6-4-.6l-.6,2h0Z"/>
  <path id="gy" d="M230.6,269.1l6.2,5.7-2.5,2.9-.2,1.7,3.3,3.4v3.2c0,0-5.7,2.2-5.7,2.2l-3.4-4.6.7-5.5-1.5-4.1,3.1-4.8h0Z"/>
  <path id="hn" d="M163.6,247.2l8-.3,2.4,2.8-1.5-.3h-2.8c0,.1-3.7,3.6-3.7,3.6l-1.6,3.5-1-.6v-3.9s-2.3-1.5-2.3-1.5l2.6-3.4h0Z"/>
  <path id="hr" d="M412.6,166.2l-3.1,2.5h-3.1l-.4,2.2,1.4.4.7-1.1,1.1,1,.9,3.1,6.1,2.9.6-.7-6.2-6.4.6-1.2,5.9-.2.6-1.9h-3.8c0,.1-1.4-.6-1.4-.6h0Z"/>
  <path id="ht" d="M201.1,235.6l3,.3-.4,3.6-.3,1.9-3.5-.2-.6.9h-1.1c0,0-.4-2.1-.4-2.1l3.7-.3-.2-2.1-1.7-.7,1.4-1.5h0Z"/>
  <path id="hu" d="M413.6,161.4l-1,1.6v2.4c0,0,1.7.8,1.7.8h4.9c0,.1,6.9-5.6,6.9-5.6v-1.3s-.7-.4-.7-.4l-5,2.2-6.8.2h0Z"/>
  <g id="id">
    <path d="M608.8,272l-.2,2,5.9,9.9h1.7l12.2,20.5,4.9.5,2.4-7.1-3.9-2.5-.7-3.9-22.3-19.2h0Z"/>
    <path d="M666.7,299.3l2,2.4-1.3,3.6v.7h2.9l1-9,.9.3,1.7,8.2,1.6.4,1.5-3.5-1.5-5.3-1.3-2.3,4-2.9-.9-1.3-3.8,2.5h-1l-1.9-2.7.6-1.2,3.1-1.5,4.8,1.5h1.4c0,0,3.6-3.4,3.6-3.4l-1.4-1.5-3.3,2.6h-2.1l-3.2-1.5h-2.3c0,0-2.5,4.2-2.5,4.2l-1.6,7.1-.9,2.8h0Z"/>
    <path d="M688,283.2l-1.6,3.9,2.5,3.3h.8l1.1-2.2.6-.8-1.1-1.2-1.6-.6-.8-2.5h0Z"/>
    <path d="M693,296.1l-3.5.8-1,1.1.8,1.5,2.3-.9,1.4-.9,2.1,1.7.9-.8-1.7-2.1-1.4-.5h0Z"/>
    <path d="M635.3,307.3l-2.4,1.6.5,1.4,7.6,1.7,3.8.7,1.6,1.7,4.3.3,2,1.7,1.9-.4,1.7-1.5-3.1-1.5-2.7-2.3-7.1-1.7-8.2-1.7h0Z"/>
    <path d="M660,314.7l-1.9,1,1.1,1.2,2.7-1-2-1.2h0Z"/>
    <path d="M663.2,313.9l.3,1.6,2,.5.8-.9-.8-1.3h-2.2Z"/>
    <path d="M667.9,318.2l-2.4.3,2.1,1.8h1.7l-1.4-2.1h0Z"/>
    <path d="M668.6,315.4l-.5,1,3.8.6,3-1.7-1.7-.5-2.7.8-1-.9-.9.7h0Z"/>
    <path d="M681.1,316l-4.4,3.7.4.9,1.9-.3,2.2-2.1,4.3-.6-.8-1.5-3.6-.2h0Z"/>
    <path d="M703.4,290.9l-3.6.4-2.3,1.7,1,1.9,3.9.7v.7l-2.5,2,1.2,4.2h1.2c0,0,1-4,1-4h1.9l.8,4,9.4,7.7.2,6.1,3.2,3.5h1.4c0,0,.3-21.4.3-21.4l-5.4-3.8-5.1,3.5-1.8,1.1-3-1.9v-6.1c0,0-1.8-.3-1.8-.3h0Z"/>
    <path d="M659.9,277.9l-2,7.5-10.8,3.7-3.2-3.8-1.6.4,2.9,11.3,4.4.5,5.9,2.2v2.2l2.7-.5,3.9-5.4v-4.4l2.2-4.4,2.4.5-2.9-6.2-.4-4-3.4.4h0Z"/>
  </g>
  <path id="ie" d="M364.1,141.5l-.8,5.2-7,2.6h-2.2l-1.6-1.1v-1l3.5-2.2-1-1.9.2-2.7,3,.2,1.4-3.2-.2,2.9,2.3,1.9,2.3-.5h0Z"/>
  <path id="il" d="M455.6,203.3l-1.4,4.3,1.8,5.2,2-7.6v-1.6l-2.4-.3h0Z"/>
  <path id="in" d="M564.2,268.1l4-1.9,2.4-8.5v-10.4c-.1,0,13.4-14.5,13.4-14.5v-3.4l2.8-1.1v-4c-.1,0-3.1-5.8-3.1-5.8l1.7-3.1,3.7,3.4,4.8.2v1.9l-1.5,1.6.3.9h2.6c0,.1.5,3,.5,3h.8l1.9-3.4,1-9,3.2-2.3v-3.1c.1,0-1.2-2.5-1.2-2.5h-2c0-.1-8,5.2-8,5.2l.5,3.4h-5.6s-2-2.4-2-2.4h-1.1c0,.1.4,3.5.4,3.5l-12.1-.9-7.5-3.3-.4-4.1-5-3.1v-6.4c0,0-3.5-3.9-3.5-3.9l-7.9.8.9,3.4,3.9,3.1-6.7,13.6-4.5.3-.7,1.6,4.4,4.1-.2,4.1h-4.5c0,0-.5,2-.5,2l3.7-.2v1.6c.1,0-2.6,1.4-2.6,1.4l1.7,3.2,3.3,1.1,2-1.5,1-2.7,1.2-.5,1.4,1.4-.4,3.4-1,1.6.2,2.8,14.2,29.5h0Z"/>
  <path id="iq" d="M472,192l-1.3,6.7-5.6,4.6.4,2.2,5.5.4,8.7,7.1h4.9c0-.1.1-1.8.1-1.8l1.8-1.9,2.5,1.4.3-.3-4.8-6.4h-2.3c0-.1-3-4-3-4l.6-2.9h.9c0-.1.3-1.4.3-1.4l-4.1-4.3-4.7.7h0Z"/>
  <path id="ir" d="M476.6,185.9l-1.1,1.1v1.7c.1,0,1.4,1.8,1.4,1.8l4.7,5.1-.7,2h-.8l-.4,2,2.6,3.4,2.4.2,4.9,6.7,2.7.2,2.1,1.5v3.1c.1,0,8.5,4.9,8.5,4.9h3.1l1.9-1.6h2.4c0-.1,1.4,3.2,1.4,3.2l9.1,1.3.3-3.3,3-1.1v-1.2c.1,0-2.3-3.3-2.3-3.3l-5.3-4.3,2.8-2.5-.2-1.1-3.5-.5-1.5-11.8-.2-2.7-9.5-3.6-4.2,1-2.4,2.9h-2.1c0-.1-.6.4-.6.4l-4.7-.3-5.9-4.3-2.2-2.4-1,.2-1.8,2.1-3.2-.6h0Z"/>
  <path id="is" d="M335.5,98.9l-1.7-1-2.3,1.4-2,1.8v1c0,0,2.6.3,2.6.3l-.2,1.8-.9.9.2.6,2.5.2v2.9l3.7.6,2.2,1.2h2.4c0,.1,4.2-2,4.2-2l3.2-4.3v-2.9c0,0-1.9-1.7-1.9-1.7l-1.6-1.4-.7.5-1.1,1.4-1.3-.2-1.3-1.4-1.6.2-2.4,2-1.4,1.5-.8-.7v-1.7c0,0,.7-.5.7-.5l-.6-.9h0Z"/>
  <g id="it">
    <path d="M392.5,167.8l-.5,1.4v1.5c.1,0,2.2,2.4,2.2,2.4h3.2c0-.1,7.2,8.2,7.2,8.2l4.5,1.3,2.6,2.5.6,5.7,1.4-.8,1.2-3.1-.3-2.2,2.1-.2.3-1.3-5.9-2.8-5.6-5.5-2.2-3.3-.5-3.1,2.9-.7-.7-2.1-1.8-1.5h-1.5c0,0-2.1.5-2.1.5l-2,2.8-1.2.8-1.9-1.1-2,.7h0Z"/>
    <path d="M409.9,190.3l-1.3-.7-4.3.7v1.2c.1,0,4,1.9,4,1.9l.6.6h1c0,.1,0-3.7,0-3.7h0Z"/>
    <path d="M397,182l-2.3,1.2.3,4.5,1.8.3,1.4-1.3v-4.2l-1.2-.4h0Z"/>
  </g>
  <path id="jm" d="M190.8,239.2l-3,.8v.8l1.8,1h1.8l1.2-1.3-1.8-1.3h0Z"/>
  <path id="jo" d="M458.7,205.7l-2.1,7.4v1.1c0,0,3.2,0,3.2,0l3.7-3.3v-1.3c0,0-1.4-1.6-1.4-1.6l2.7-2.3-.4-2.1-.8.2-2.3,1.6h-2.7Z"/>
  <g id="jp">
    <path d="M678.6,184.6l-1.4,1.4.6,2h1.2c0,0,.8,4.4.8,4.4l1,1.1,1.7-1.6.2-4.8-2-2.1-2.1-.4h0Z"/>
    <path d="M685.9,180.6l-2.7,2.2-.6,2.7,1.8,1.2,2.6-2.8.4-3.1-1.6-.3Z"/>
    <path d="M682.8,176.4l-4.2,4.8v2.3l2.6-.3,4.1-3.6,2.7-.5.7.8v2.4s.7,1.2.7,1.2h1.3l1.8-2.2.7-2.8h3.6c0,0,3.5-4.3,3.5-4.3l-1.8-6.9-.8-3.7,1.8-1.5-4.1-6.2-.9-.7-1.9.7-.5,2.6v2.1l1,1.2.3,5.5-2.6,3.2-1.5-.9-1.2,2.6-.3,2.4.9,1.4-.6,1.1-1.9-1.6h-1.3l-1.2.7-.9.3h0Z"/>
    <path d="M690,138.8l-1.3,1.2.7,2.5,1.2,1.2v3.8c0,0-1.6.6-1.6.6l-1.2,2.6,3.4,4.7,2.2-.8.4-1.2-2.4-2.2,1.5-1.9,1.6.2,3.4,2.3.4-2.6,1.6-3,2.3-2.3-2.5-1.1-.9-1.8-1.2.8-1.1,1.3-2.3-.5-2.4-1.6-1.7-2.3h0Z"/>
    <path d="M702.4,136.2l-2.3,3.2.2,1.6,1.2-.5,2.7-3.4-1.7-.9h0Z"/>
    <path d="M705.5,131.5l-.8,2.2v1.5c0,0,1.5-.9,1.5-.9l1.3-2.7v-1l-2,.8h0Z"/>
  </g>
  <path id="ke" d="M460.4,279.8l2.3,4.5-2.8,5.8-.4,1.8,13.8,8.5,4.3-6.7-2.2-1.8v-8.8s2.7-3,2.7-3l-4.3,1.4h-3.3s-5.1-4.3-5.1-4.3l-1.6-.7-3,.3-.5.9v2.1h0Z"/>
  <path id="kg" d="M534.7,169.7l-.3,2.2.2,1.4,7.5,2.5-6.6,2.7-.8-.6-1.4.9v.5c0,0,.8.3.8.3h4.6c0,.1,2.4-.6,2.4-.6l3-3.8,3.8.7,4.6-6.3-12.2-1.7-1.7,4.1-2.1-2.3h-1.9Z"/>
  <path id="kh" d="M624.3,256.4l3.5,3.8,6.6-4.9.6-7.7-3.4,2.3-1.8-1-2.4-.3-1.3-.9h-.6s-1.8,2.9-1.8,2.9l.3,1.3,1.8,1-.2,2.7-1.2.8h0Z"/>
  <path id="km" d="M483.6,318.4l.4,1.3,1.7.3.7-1.7h-2.8Z"/>
  <path id="kp" d="M657,165.5l1.6.7.5,5.6,3.2.2,3-3.5-1-.9v-3.7c.1,0,2.9-3.3,2.9-3.3l-1.4-2.5.9-1,.5-2.6-1.6-.7-1.3.7-1.7,5.1-2.7-.2-3.1,3.7.4,2.7h0Z"/>
  <path id="kr" d="M665.7,168.9l5.3,4.4.9,4.2-.2,2.3-2.6,2.9h-2.2c0,.1-2.6-5.4-2.6-5.4l-1-2.6,1-.8-.2-1.1-1.3-.6,2.8-3.3h0Z"/>
  <path id="kw" d="M488.4,211.2l-1.9-1.1-1.3,1.4v2.7c.1,0,3.3,1.2,3.3,1.2v-4.2h0Z"/>
  <path id="kz" d="M482.7,160.6l3.5-1.5h4c0-.1.3,5.9.3,5.9h-2.3l-1.8,2.9,2.3,3.8,3.4,1.9.3,2.2,1.3-.4,1.2-1.4,1.9.4,1,1.9h2.5v-2.5l-1.5-4.4-.7-3.6,4.4-1.9,5.9,1,3.7,3.7,8.3-.8,4.6,6.6,5.5.3,1.5-2.5,1.9-.4.3-2.7h2.9c0-.1,1.5,1.6,1.5,1.6l1.5-3.6,13,1.8,2.2-2.9-3.7-4.5,4.9-10.7,4,.3,2.7-6.6-5.5-.6-3.1-3-8.6,1-11.1-10.8-3.9,3.5-11.9-5.4-14.6,7.1-.4,5.1,3.4,4-6.7,3.8-8.6-.2-1.8-2.7-6.8-.4-6.4,4.1v5.6c-.1,0,5.8,4.8,5.8,4.8h0Z"/>
  <path id="la" d="M620,224.8l-2.1,1.1-1.7,5.1,2.9,3.7-.5,4.1.5.2,4.8-2.3,6.5,7.2-.2,4.6,1.4.8,3.5-2.8-.3-2.2-10.1-9.6v-1.5c0,0,1.3-.9,1.3-.9l-.9-2.4-4.2-.7-1.1-4.3h0Z"/>
  <path id="lb" d="M456.4,198.4v1.7c0,0-.7,2.6-.7,2.6l2.4.2.2-3.6-1.9-.8h0Z"/>
  <path id="lc" d="M228,251.7l-.6,1.3,1,1.1,1.3-.7-1.7-1.7h0Z"/>
  <path id="lk" d="M572.5,263.8l.2,2.4.2,1.7-1.3.2.6,3.8,1.9,1.1,3-1.7-.8-4.1.2-1.5-2.8-2.6-1.3.6h0Z"/>
  <path id="lr" d="M347.4,273.4l9.5,6.3-.2-4.8-2.9-3.4-2.8-2.5-3.6,4.3h0Z"/>
  <path id="ls" d="M440.1,365.2l2.6-2h1.2c0,0,1.5,1.9,1.5,1.9l-.2,1.9-2.5.9v.7l-2.8-.2-.7-2,.8-1.2h0Z"/>
  <path id="lt" d="M421.4,133.6l-2.1.4.2,2,3.4.2,1.3,1,.3,1.8,1,1.4h3.1c0-.1,2.9-3.9,2.9-3.9l-.2-2.2-5.5-.9h-4.3Z"/>
  <path id="lu" d="M389.7,156l.8.7h.9c0,0,.2-1.7.2-1.7l-.3-1-1.2.6-.4,1.4Z"/>
  <path id="lv" d="M432.1,128.4l-6.4-1-1.1,2.8-1.8.5-1-1.2-1-1.8-1,.8-.6,3.1v1.7l2.2-.4h4.7c0,0,5.6,1.1,5.6,1.1l2.2-.7v-2.5c-.1,0-1.9-2.5-1.9-2.5h0Z"/>
  <path id="ly" d="M399.2,211.9l1.4-.2.4-3.1h.7l2.8-4.5,6.8,2,1.9,2.9,6.7,3.1,3.5-1.5-.3-1.5-1.5-1.5.2-1,2.5-2.1h4.9l1.9,2.5,3.9.6.5,31.9h-2.9c0-.1-17.7-9.3-17.7-9.3l-1.9,1.1-7.3-1.8-2-2.6-2.9-.4-1.5-2.6v-11.9h0Z"/>
  <path id="ma" d="M371.7,198.3h-10l-2,4.3-4.5,2.2-3.7,10.1-7.2,4.3-10.2,16.8,10-.2.4-4.9h2.5v-6.7h8.8l.2-8.7,8.4-2,3.5-5.7,5.5-.2-1.8-9.3h0Z"/>
  <path id="md" d="M434.4,159.8l2.7,4.1-.2,2.3h1s2.3-3.8,2.3-3.8l-2.7-3.4-1.5-.6-1.4,1.4h0Z"/>
  <path id="me" d="M418.9,175.1l-1.3,1.8.4,1.1,1.5.3,1.2-1.6-1.8-1.6Z"/>
  <path id="mg" d="M496.2,319.9l-1.8,4.4-3.2,5.6-5.5.4-2.4,2.8.4,8.5-3.4,4,.4,6.8,2.9,3.3,3.4-.4,3.4-2.5-.8-4,7.9-13.7-1.6-1.7,1.6-3.3,1.7.5.5-1.3-1.6-6.8-.9-2.8-1.1.3h0Z"/>
  <path id="mk" d="M425.9,177.3l-2.9,1v2.5c.1,0,.8.9.8.9l3.5-1.6-1.4-2.7h0Z"/>
  <path id="ml" d="M346.8,253.3l2.7-1.8h14.8c0,0-3.4-23.9-3.4-23.9h3.9c0-.1,18.9,14.3,18.9,14.3l2.5.4-1,8-11.9,1.1-9.2,6.8-1.7,4.7-6.4.3-1.6-4.7-4.9.3.2-1.5-3-4h0Z"/>
  <path id="mm" d="M614.8,260l-2.4-3.8,1.7-2.4-1.6-3-1.5-.3-.3-5.1-2.3-4.5-.7,1.1-1.5,2.6-1.9.3-1-1.3-.5-3.4-1.5-2.7-5.9-5.6,1.5-1,.3-4,2.2-3.6.9-9,3.1-2.1v-3.3c.1,0,2,.6,2,.6l3,4.3-2.2,4.7,1.5,3.7,3.7,1.4.7,4,4.9.8-1.4,2.3-6.2,2.4-.7,4,4.5,5.8.2,3.1-1.1,1.1v1c0,0,3.5,5,3.5,5v5.2c0,0-.9,1.8-.9,1.8h0Z"/>
  <path id="mn" d="M566.7,144.6l5-6.7,6,2.8,4.1,1.1,5-4.6-3.4-2.5,2.2-3.2,6.7,2.4,2.3,3.8h4.2c0,.1,2.2-1.5,2.2-1.5l4.5-.2,1,1.7,7.5.4,4.8-4.8,6.6.7-.4,6.6,2.9.7,3.5-1.6,3.7,1.9v.9c0,0-2.8,0-2.8,0l-2.8,5.9-2.2.2-8.5,11.2-8.7,3.8-5.5.4-4.5-2.9-5.8,3.1-5.7-1.8-1.6-4.1-10.8-.8-5.5-9.4-2.7-.2-1.4-3.3h0Z"/>
  <path id="mr" d="M334.2,236.7l1.9,2.5-.4,10.6,2.7-2,2-.4,2.7,1,3.1,4.3,2.9-2,14.3-.2-3.5-23.9h3.8s-7.1-5.4-7.1-5.4v3.5s-8.9,0-8.9,0v6.7s-2.6,0-2.6,0l-.3,4.9-10.6.2h0Z"/>
  <path id="mt" d="M410,196.7l-1.4.3v1.6c0,0,1.3.4,1.3.4l.6-.5-.5-1.8h0Z"/>
  <path id="mu" d="M514.1,342.4l-1.3,1.7.3,1.9,2.8-2.3-1.7-1.3h0Z"/>
  <g id="mv">
    <path d="M551.6,274.8l.3,2.3,1.4.5.3-2-2-.8h0Z"/>
    <path d="M553.5,279.6v2.8c-.1,0,.9.5.9.5l.9-1.9-1.8-1.5h0Z"/>
    <path d="M553.7,285l-.9.9,1.1.9,1.3-.9-1.4-.9h0Z"/>
  </g>
  <path id="mw" d="M457.2,325.5l2.7,2.8v3.6c0,0,.5,1.5.5,1.5l3.6-3.9-.4-4.9-1.9-1.5-1.7-8.6h-2.9c0-.1,1.3,6.1,1.3,6.1l-1.1,4.8h0Z"/>
  <path id="mx" d="M103.1,192.4l4.2,13.1-1.9,1.1.2,2.6,3.7,2.8v5.2l4.5,4.4-1.9-12.8-2.6-8.5.6-5.9,2.2.2.9,2-.9,5,11.2,22v7.8l9.1,10.7,9.9,4.6,4.1-2.4,5.8,4.8,3.5-3.5-1.5-3.9,5-1.5,1.5.9,1.5-1.5h2.4l4.3-7.6-2.2-2-8.4,2-1.9,5.7-5,.9-5.8-2.4-2.6-8.3,2-10.4-4-2.5-1.9-10-1.6-.7-2.9,3-3.4-1.8-1.3-6.7-13.3-1.4-6.9-5.2-6.5.3h0Z"/>
  <g id="my">
    <path d="M617.6,270.2l1.7,3.9.4,5.1,2.3,3.6,5.1,3.1,1-.8,1.5-.3-.2-1.9-1.8-4.5-2.7-5.7-.2,1h-3.2c0-.1-2.3-3.5-2.3-3.5h-1.5Z"/>
    <path d="M644.8,285.3l2.6,3,10-3.5,2-7.6,4.5-.3,4.1-3-5.3-3.9-1.2-2.1-2.6,4.8,1,2.8-1.6,2.3-3-.8-7.3,5.3.2,3.1-3.3-.2h0Z"/>
  </g>
  <path id="mz" d="M452,354.8l2.3,1.9,5.5-3.3.9-5v-8.2l8.8-7.2h1.5c0,0,5.3-5.1,5.3-5.1l-.8-10.5-13.8,1.7.5,3.3,2,1.8.6,5.7-4.8,4.6-1.1-2.6.2-3.4-2.7-3-6.7,3.1,6.3,3.2.2,9.3-4.1,6.1v7.4h0Z"/>
  <path id="na" d="M413.5,362.3l2.9.2,1.7,1.7h4c0,0,1-11.4,1-11.4v-7.5l2.6-.5,1-7.9,6.6-.2,2.3-1.9-3.9-.2-5.3.7-5.7-2.1h-16.1l.4,4.6,5.4,7.9-.9,4.1v2.1c0,0,4.2,10.3,4.2,10.3h0Z"/>
  <path id="nc" d="M767.9,361l-.3,1.5,4,5.6,2.1.9.3-2.2-6.1-5.9h0Z"/>
  <path id="ne" d="M382.6,258.6h2.2c0,0,2-3,2-3l3.3-.6,3.6,2.2,7.6.2,5.9-2.4,2.2-1.9.2-2.5,4.1-4.1,1.1-9.1-2.7-5.6-6.9-1.7-15.9,12.4-2.3-.2-1,8.6-8.1.8,4.8,6.9h0Z"/>
  <path id="ng" d="M383.2,273.6l3.4.2,4.1,4.6,2,.5,1.6-.8,2.4-.3.8-3.3,3.2-2.1,3.5-.2,6.4-11.8v-2.7c-.1,0-3.1-2.3-3.1-2.3l-5.9,2.6h-7.9c0-.1-3.8-2.5-3.8-2.5l-2.7.6-1.4,2.4v6.9c-.1,0-2.4,3.2-2.4,3.2l-.2,4.9h0Z"/>
  <path id="ni" d="M172.4,250l1.9.4v3.9c0,0-2.1,6.3-2.1,6.3l-5.9-.6-1.3-3,1.8-3.7,3.3-3.1h2.4Z"/>
  <path id="nl" d="M390.6,143l-3.9,1.9.8.8v1.9c0,0-.7-.2-.7-.2l-.9-1.4-2.2,3.5,3.4.7,1.3,1.3h.7s.4-3,.4-3l2.1-.9-.9-4.6h0Z"/>
  <g id="no">
    <path d="M429.8,85.8l1.7-1.3-.2-1.4-1.1-.6.2-1.8h1v-1l-4.1-1.1-6.2.6-.6,2.7-1.4-.5-1-1.6-3,.2-.3,3-1.4.6-.8-1.6-6.3,5.1,1.3,1.4-2.4,1.1-5.4,10.7-1.9,1.3.2,1,1.9,1-.5,2.1-3.2-.2-1-1.1-2.1,2.4-1.3,1-.3,2.2-1.1.6-2.9.6-1.4,4.5,1,7.3,1.1,3.4,1.3,1.3,2.9-.2,4.1-4,1.6-2.7.5,4,2.7-4.8.2-13.4,2.2-1.4.7-7.4,6.7-9.6,3.2-1.1,1.4-1.8,4.8,1.1,2.4,1.4.8-4,4-2.4,2.4,4.2h0Z"/>
    <path d="M406.3,44.2l-1.4-1.4-3.2,1.5h-5.8l-.9,3.4,3.3,2.9,1.4-.2,2-3.5,1.7,1.2-1.2,2.5-.6,3.6,1.4,2.3,3.1-5.1,4-4.8-1.5-1.3-2.2-.9h0Z"/>
    <path d="M408,38l-2.5,2.4,1.5,2.4h2.7l1.1,1.5,3.4,1.7,3.9-2.3,2.7-2.3-.9-1.9-2.7-1.5-1.9,1.7-1.3-1.6h-1c0,.1-1.3,3-1.3,3l-1.9-2-.2-1.3h-1.4Z"/>
    <path d="M413.8,48.6l-2,1.9-1.7,1.3.8,1.4,1.6.5,2.7-1.2,1.2-1.5-1.1-1.9-1.4-.5h0Z"/>
  </g>
  <path id="np" d="M564.4,207.2l.4,3.7,7,3.2,11.2.8-.4-2.7-7.5-2.1-6.3-3.8-4.3.9h0Z"/>
  <g id="nz">
    <path d="M773.5,414.1l.9,10.2-1.2,4.6-4.6,3.4.3,4v4.3l1.2,1.5,12.6-10.8v-2.5h-3.1l-4.3-14.5-1.8-.3h0Z"/>
    <path d="M764.3,436.4l2.5,4.6-6.8,6.5-.6,3.4-4.6.6-7.7,7.1-7.1-3.4-.6-2.5,12.9-5.6,12-10.8h0Z"/>
  </g>
  <path id="om" d="M501.5,240.3l6.4-3.7,1.1-5.4-1.4-.8.6-5.8,1.2-.7,1.3,2,7.8,4.1v2.3l-9.4,13.9h-4.3c0,.1-3.3-5.8-3.3-5.8h0Z"/>
  <path id="pa" d="M174.9,265.2l-1.3,3.9,4.2,1.1,2.6.5.4-3.1,2.8-1.4,2.5,1.3,1,1.5h1.2c0-.1.9-2.9.9-2.9l-3.1-1.3-2.3-1.3-2.3,1.6-2.8,1.4-2.8-1.1-.9-.3h0Z"/>
  <path id="pe" d="M178.8,299.7l-1.7,1.7v2.7c.1,0,14.8,26.7,14.8,26.7l15.2,9.8,2.4-3.9.6-8.7-1.2-5.4-4.1-7-2.5.8-1.1,1.2-4.9-5.6,1.2-6.6,5.7-3.7-.4-3.5-5.8-.2-3-5.1-1.7-.6v3c.1,0-7.4,8.9-7.4,8.9l-5.6-1.3-.3-3.2h0Z"/>
  <g id="pg">
    <path d="M721.4,298.6l-.3,21.1,3-.2,4-4.7,3.4.2,2.2,1.9.7,6,6.9,3.6,1.8-.6v-2.2l-5.5-4.6-2.7-6.3,2.2-1-1.6-3.5h-3.2c0,0-.8-3.8-.8-3.8l-8.5-5.7-1.4-.2h0Z"/>
    <path d="M747.4,304.4l-.8.2-.5,2.2-1.6,1-4.7.8.2,1.8,5-.2,3.2-2-.2-3.4-.5-.4h0Z"/>
    <path d="M745.3,299.2l-.8,1.1,4.2,3.7.6,2.2h1.1c0-.1.1-2.4.1-2.4l-1.3-1.1-4-3.4h0Z"/>
  </g>
  <g id="ph">
    <path d="M666.6,254.7l-.7,1.4-.4,1.7-4.1,5.2.2,1.1,1.7-.3,5.4-6-2.1-3.2h0Z"/>
    <path d="M673.3,252.7v4.3c0,0,1.5,1.6,1.5,1.6l.6,3.1,1.6.3.7-1.9-1.2-.9-.3-5.4-2.8-1.1h0Z"/>
    <path d="M677.7,254.4v3.8c0,0,.8,1.5.8,1.5l1.6-1.8-.4-3.3-2-.2h0Z"/>
    <path d="M678.7,251l1.6,2.1.7,2h1.4l-.2-3.4-1.6-1.1-1.9.4h0Z"/>
    <path d="M681.8,258.9l.3,2.5-2.9,2.3-2.4.3-2.6,2.7v1.3c0,0,2.5-.8,2.5-.8l1.7-1.1,1.4,3.6,2.5,1.7,1-.3.9-1.1-2-2,1.2-.9,1.3,1.1.9-1.5-.9-1.8-.2-4.1-2.7-1.9h0Z"/>
    <path d="M668.3,233.5l-2.2,1.6-.2,5,3.5,6.7,1.2.9,1.5-1,2.6.4.5,2.2,1.9.2.9-1.2-1.2-1.6-1.4-1.3-3-.3-1.6-2.6,1.8-2.7.2-2.4-1.2-3.1-3.1-.8h0Z"/>
    <path d="M669.5,248.4l.7,2.3,1.2.8.8-1.1-1.3-1.8-1.3-.2h0Z"/>
  </g>
  <path id="pk" d="M522.9,213.5l2.2,3.3-.2,1.7-3,1.2-.2,2.8h3.4l1.2-1h6.5l5.9,5.2.8-2.5h4.4v-3.1c.1,0-4.4-4.3-4.4-4.3l1-2.4,4.6-.3,6.2-12.9-3.4-2.7-1.3-4.5,8.3-.8-4.9-7-2.6-.7-1.1,1.3h-.8c0,0-4.9,3.2-4.9,3.2l1.6,2.7-1.8,1.9-2.2,8.3-5.6,3.6-.8,3.9-8.9,3.1h0Z"/>
  <path id="pl" d="M426.3,148.6l.7,1.3.2,1.4-.6,1.4-1.4,2.7-1.2.5-1.5-.7h-.9s-2.2.9-2.2.9l-2.5-.7-4.1-2.9-4-2.1-1.6-2.4-.3-5.8,3.1-2.7,4.1-1.4h1.3c0-.1.3.9.3.9l1.7.7h4.8c0,0,1.5,0,1.5,0l2.4,3.7-.6,1.5.3,1.8.5,1.8h0Z"/>
  <path id="pr" d="M218.5,240.5l-2.3-.8-1.8,1.1.9,1.1,3.1.5v-1.9h0Z"/>
  <g id="pt">
    <path d="M356.7,180.1l-.5,7.5-1.5,1.4.2.8,1.1,1.8-.7,2.2,1.1.4,2.7-.3-.2-2.2,1.8-10-.4-1.4-3.5-.2h0Z"/>
    <path d="M337.1,201.9l-.9,1.2.9,1.2,1.4-.7-1.4-1.7h0Z"/>
    <path d="M306.3,185.1l-1.2,1.2,2.1,1.2.2-1.6-1.2-.7h0Z"/>
    <path d="M312.7,184.4l-1.4.9,1.2.9,1.9-.5-1.6-1.4h0Z"/>
    <path d="M313.6,187.7l-.7,1.9.9,1.2,1.2-.9-1.4-2.1h0Z"/>
    <path d="M319.2,191.5l-.5,1.2.7.7,1.9-1.2-2.1-.7h0Z"/>
  </g>
  <path id="py" d="M236.4,342.9l1.9,2.1-.2,4.4,5.5-.3,4.1,5.3-.3,4.7-2.7,4.1-5.5.2-.2-2.3,1.6-3.7-5.4-3.4h-4.5l-3.4-3.6,2.4-7,6.6-.5h0Z"/>
  <path id="qa" d="M496.5,221.4l-.4,3.5,1.3,1h1.2c0-.1.5-4.5.5-4.5l-1-.8-1.5.8h0Z"/>
  <path id="ro" d="M427,159.7l-.2,1.3-5,4.2,4.2,6.1,2.7,1.9h4.8l1.6-1.3,2.1-.3,1.6,1,2.8-3.2-.5-1.6-2.9-.7h-2c0,0,0-2.8,0-2.8l-2.6-4.1-6.7-.3h0Z"/>
  <path id="rs" d="M421.2,165.7l-1.8,1.3h-.9l-.6,1.8,2.1,2.4v1.9c.1,0-.7,1.2-.7,1.2l3.1,3.2,3.3-1-.3-4.7-4.2-6.2h0Z"/>
  <g id="ru">
    <path d="M691.3,60.6l1.5,5.3,3,.9,3-4.8-1.7-3.3.6-2.8h4.6l-1.1,2.2.4,7.9-6.5,16.2.6,3.5-.2,5.9,12.2,17.7,2.4.7.2-14.4,2.4-2.2-2.6-5.7,2.2-2.4-4.8-6.3-2.6.2-.9-10.5,6.7-1.8.4-3.1,3.5-.9,2,1.8,2.4-9.6,4.1-7,3.3-1.8,2.8.2v-3.3l-4.6-.9-6.3-5.3,3-3.5-2.6-5.9,2.2-2.2,2.6,3.5,6.5,2.4,7.2.7.9-3.1-3.7-3.7,4.1-5.7-9.3-3.3-2.4,4.8-3-3.9-17.2-5.9-16.3,2.8-2.4,1.3v1.3l3.5,1.8-.4,4.2-6.3-2.6-13.9,5.5-2.4-5h-9.6l-4.3,4.6-15.4-3.5-14.1,2.8-1.7,4.4,2.2.7-.2,3.3-13.7,1.5.9,4.4-12.6-2.2,3-5.7-12.8-.7,1.1,5.9-4.1,2-3.5-3.3-14.1,2.4-5.4,5-.2,3.1-3.5.2-.4-3.5,11.1-9.6v-6.6l-7.2-2-9.3,3.1-3.9-3.9h-1.7l-2.2,4.4,1.7,2-12.4,6.8-10.6,8.1-6.5,9v3.7l6.9,2.8-3.5,2.6-7.4-2.6-3,2.6-4.6-5.3-.9,2,5,15.8,1.3.4,3.5-1.8,1.7,1.3v2.8l-3.3-1.3-2,1.5,1.3,2.8-1.1,7.4-6.7.7-.4-2.4,3.9-2.4.9-6.6-4.3-5.7-1.5-9.8-6.9-1.1-.6,3.5,1.3,1.8-2.8,2.4,1.1,6.6,4.1,1.8.9,4.8-4.1-2.6-10.6-2-1.3,3.5-8.5,3.1-1.3-2.2-11.1,6.1-.2,4.2-4.3.7,1.3-3.1v-3.1l-4.3-1.5-2.8,1.1,2.4,4.6,1.7,3.1v2.4l-3.3-.7-.6-.7-3.3,3.5,1.7,3.1-7.4-.2,2.4,3.1-.6,1.3h-3.9l-2.8-2-.6-5.5-4.6-1.8v-2.2l9.6,2,5.2.4,2.2-3.3-2-3.5-13.9-5.5-4.8,1.2-1.6,1.4.5,3.2,2,.4-.5,5.1,6.3,14.8-4.5,7.2-.3,1.6,2.3,1.6-2.1,1.4h-1.4s.3,6.4.3,6.4l1.9,2.7v2.6s2.5.2,2.5.2l3.7,1.4,4,5.4v1.4s-1.2,2.2-1.2,2.2l3-.2,2.9.8,3.9,5.5,9.6.9-.4,6.6-3.3,2.8.7,1.1-3.3,3.5-.9,3.3,2,2.8,6.3,2.2,2.6-1.5,16.7,6.3.6-1.8-3.5-3.3v-4.2l-2.2-.7.4-3.5,3.5-4.2-6.2-4.7.4-6.5,6.7-4.4,7.8.4,1.3,2.4,8,.4,5.9-3.3-3-3.3.6-6.1,15.2-7.4,11.7,5.3,3.9-3.5,11.5,10.9,8.7-.9,3,3.1,8.3.9,5.4-7.4,6.9,3.1,3.7.7,3.7-3.3-3.3-2.2,2.8-4.4,8,2.6,1.7,3.5,3.5.2,2.2-1.5,5.9-.2.6,1.5,6.7.4,4.6-4.8,9.3,1.1,2.8-1.1.9-5.3-2.8-6.3,2.8-2.4h8.9l8.5,10.1,10.9,6.1h3.3l.4-2.6,3.9-2.4.4,14.2-3.5.2v3.5l2,2.4-.4,3.1,1.4.6.9-2.2,1.3.4.9.9,3.9-.9,3.9-11.4.4-14.2-5-11.4-6.3-7.7-3,.4v2.4l-7.4-2.8,2.8-6.1,2.4-16.2,10-3.1,4.8-3.1h5.2l-1.3,1.8,1.3,2.2,4.6-4.8,2.6.2-.4-2.8-4.1-.9,2.8-10.3,3.7-3.5h0Z"/>
    <path d="M419.3,136.7l-1.3,2.4h4.7s1,0,1,0l-.2-1.4-.7-.9-3.4-.2Z"/>
    <path d="M710.4,111.7l-1.1,1.3v2.1c0,0,1.1,0,1.1,0l1.7-2.9-1.7-.4h0Z"/>
    <path d="M746,30.7l-2,1.3-.5,1.7,1,1.1,2.2-.7,2.2.7,1.2.4v-4c-.1,0-4-.5-4-.5h0Z"/>
    <path d="M457.8,31.1l1.5.6-1,1.8v2.5l-2.2,1.4h-2.4l-1.3-1.7v-1.8c.1,0,1.2-1.4,1.2-1.4h2.1l2.2-1.5h0Z"/>
    <path d="M463.4,29.4v1.8l1.5,1.2h2.1c0-.1,1.8-1.8,1.8-1.8v-1.2h-1.6l-1.3.4-1-1.2-1.3.8h0Z"/>
    <path d="M471.9,29.6l1,2.2h2.1c0,.1,1.5-.4,1.5-.4l-.7-2.1-1.9-.5-1.9.8h0Z"/>
    <path d="M480.4,26.6l-1.6-.3-1.5,1.5.7,1.3.4,2.1,1.9-1.5.4-1.6-.5-1.5h0Z"/>
    <path d="M489.5,42.5l-.5,2.1-3.4,3-7.3,1.7-6,9.9-1,2.9,6,1.5.9-3.6,1.8-5.5,4.6-2.4,3.9-3,2.8-1.2h1.5v-4l-3.3-1.2h0Z"/>
    <path d="M470.3,64.4l4,.5,1.3,4.6,3.4,3.6-1.2,2.4h-2.1l-1.9-2.2h-4.3c0-.1-1.8-2.5-1.8-2.5v-1.7l2.7-.8-.2-3.9h0Z"/>
    <path d="M533.1,13.2l-1.9-1.2h-2.2l-.4,1.4-2.4,1.3-1.8.6-.3,1.8,4.2.3,4.9-4.2h0Z"/>
    <path d="M537.7,13.7l-1,2.2h-2.1c0-.1-3.3,2.3-3.3,2.3l-.9,3h2.1l1.2-2,2.8,2.1,2.7-1.2,1.9-1.6-.7-2.6-1-1.8-1.6-.5h0Z"/>
    <path d="M542,15.3l1,4.2,1.6,3.9,1.8-3.1,3.4-.8v-2.2l-2.2-1.7-5.7-.3h0Z"/>
    <path d="M623.7,8.6l2.3,2,1.6-.7.5-2.7-3.4-2.3-2.2,1.5-5.4.5v2.4h-5.7v4.1l6.7,5,1.7-1.3-.4-3.5,4.3-1.1-.9-1.7-1.5-1.6,2.4-.6h0Z"/>
    <path d="M629.9,6.2l1.5,2.9,6-.7,1.7-2.2-.4-1.9-1.7-.7-1.5,1.2-4.5,1-1.2.3h0Z"/>
    <path d="M629.5,17.7l-3-.8-1.7,1.9-.8,2.5,4.1-.4,3.1-1.6-1.7-1.7h0Z"/>
    <path d="M707.5.8l-2.5-.8-2.9,1.1-1.5,2.2,1.8,2.4,4.8-2.2,1-1.1-.8-1.7h0Z"/>
    <path d="M708.4,116.7v3.7l1.2.4.8-1.3v-2.8h-2Z"/>
    <path d="M674.6,103.5v5.3c0,0,6.6,10.3,6.6,10.3l2.4,9,4.2,8,1.6.6,1.4-1.2.7-1.9-6-6.6.2-3.4,1.3-.6.3-2-11.8-16.7-.9-.8h0Z"/>
    <path d="M721.2,86.9l-1.6.2,1,1.4,2.1,1.4.6-.7-2-2.3h0Z"/>
    <path d="M724.4,87.9l.3,1.4,2.6.8.3-1-3.1-1.2h0Z"/>
    <path d="M738.5,93.4l1.1,1.9h1.8c0-.1.4-1.5.4-1.5l-3.2-.5h0Z"/>
    <path d="M756.6,96.4l1.4,2.7,1.1-1.2v-1.8l-2.5.4h0Z"/>
  </g>
  <path id="rw" d="M449.1,291.3l2.4,2.2v2.4c-.1,0-3.9,0-3.9,0v-2.6l1.4-2.1h0Z"/>
  <path id="sa" d="M489,216.4l6.1,8.4,2,1.6.9,3.8,9.3.7,1.1.6-1,4.7-6.1,3.6-9,2.7-4.8,4.7-5.7-3.3-3.4,3-4.8-7.8-3.3-1.5-1.2-1.8v-3.9l-12-14.5-.5-2.6h3.4l4.2-3.6v-1.8c.1,0-1-1.2-1-1.2l2.4-2,5.1.3,8.7,7.2,5.1-.2.3,1.3,4.3,1.6h0Z"/>
  <g id="sb">
    <path d="M753,308.3l1.1,3,1.9,1.8.6-.5-.2-2-2.1-2.6-1.2.3h0Z"/>
    <path d="M758.2,312.7v2c.1,0,1.3,1.1,1.3,1.1l1.1-.7-1-2.1-1.5-.3h0Z"/>
    <path d="M759.8,317.6l-1,1.1,1.1,2,1.3.4v-1.3c0,0-1.3-2.1-1.3-2.1h0Z"/>
    <path d="M762.2,316.5l.9,2.2,1.7,2,.9-1.5-1.3-2.2-2.3-.5h0Z"/>
    <path d="M766.6,319.7l.5,2.7,1.2,1.7,1-2.1-2.7-2.2h0Z"/>
    <path d="M768,325.7l-.4.8,1.5,1.9h1c0,0-.6-2.4-.6-2.4l-1.4-.3h0Z"/>
    <path d="M764.8,329.5l-1.5.7,1.3,1.8,1.1-.6-.9-1.9h0Z"/>
  </g>
  <g id="sc">
    <path d="M504.9,307.3l-.5,1.1,1.4,1.2,1.1-1.2-2-1.1h0Z"/>
    <path d="M512.3,299.3l-1.6,1.1,1.2,1.9h1.6l-1.2-2.9h0Z"/>
    <path d="M512.9,304l-1.1,1.2.8,1.2,1.4.3v-2.5c.1,0-1.2-.1-1.2-.1h0Z"/>
  </g>
  <path id="sd" d="M435.4,263.4l-2.5-1.5-2.3-4.6v-4.3c.1,0,3.4-2.8,3.4-2.8h0l.2-10.2h2.1c0,0-.2-5.6-.2-5.6l22.3.2,3.2-3.2,6.9,11-3.8,4.4v6.8l-4.6,9.9-1,2.3-3.7-5.3-2.7,3.4-3.1.8-9.9-1-4.3,1.5.3-1.9Z"/>
  <g id="se">
    <path d="M414.5,87.9l1.7,1.6h3.2l1.7,3.4.5,5.7-4.3,3v3l-3,4.2-1.7.2-2.4,4,.2,3.8,4.1,3-.3,1.8-1.6,2.4-2.4,2.1.2,6.9-3.6,1.3-1.3,2.7h-1.7l-.9-4.8-4-6.1,3.3-5.5.2-13.5,2.2-1.2.5-7.7,6.4-9.2,3.1-1.1h0Z"/>
    <path d="M415.1,127.3l-1.8,1.4.9,2.1,1.6-1.6-.7-2h0Z"/>
  </g>
  <path id="sg" d="M627.5,286.1l.7.4h1.5c0-.1-.1-1.3-.1-1.3l-1.3.2-.8.7Z"/>
  <path id="si" d="M411.9,163.5l-2.2,1.3-4.1.9.8,2.4h2.9s2.6-2.2,2.6-2.2v-2.4h0Z"/>
  <path id="sk" d="M412.8,159.3l.6.5v.9c0,0,6.7-.1,6.7-.1l4.9-2.1v-2.1c0,0-1,.4-1,.4l-1.3-.7h-.8s-2.2.8-2.2.8l-2.9-.7-3.9,3.1h0Z"/>
  <path id="sl" d="M342,268.2l4.9,4.7,3.5-4.2-2.2-3.4-3,.3-3.2,2.6h0Z"/>
  <path id="sn" d="M341.7,257.2h-5.8c0-.1,1.1,2.5,1.1,2.5l.6-1.6,7.3.8h.8s3.4,0,3.4,0v-1.5c.1,0-3-3.7-3-3.7l-3.5-4.7-2.2-.9-1.7.4h0l-3.4,2.5-.8,1.4-.2,1.4,1.3.9h4.2c0,0,2.7-.8,2.7-.8l.3,1.3-.2,1.7-.9.3Z"/>
  <path id="so" d="M495.9,260.4l3.8-1.5,1.3.8v3.4c-.1,0-3.6,9.9-3.6,9.9l-18.9,20.2-2.2-1.5v-8.5c-.1,0,2.7-3.3,2.7-3.3l6-1.9,8.8-9.3,2.3-2.1.6-3-.9-3.3h0Z"/>
  <path id="sr" d="M237.6,275.1l1.8,1.6,2.7-1.7h2.5c0,0-.3,1-.3,1l-1,2.2-.2,5.4-5,2,.2-3.5-3.2-3,.2-1.5,2.3-2.6h0Z"/>
  <path id="ss" d="M458.6,266.4l-2,.9.6,3.6h2.5l3.4,5-2.8.4-.7,1.3v1.9c0,0-8.4-.1-8.4-.1l-.8-1.3-5.8-.3-10.6-11,1.1-.6,4.5-1.4,9.9.8,3.4-.8,2.2-3,3.5,4.8Z"/>
  <g id="st0" data-name="st">
    <path d="M391.1,289l1-.5.7.6-.7,1.1-.9-.4v-.9h0Z"/>
    <path d="M393.1,285.8l1.5-.3.5,1-.7.8h-.7c0-.1-.5-1.5-.5-1.5h0Z"/>
  </g>
  <path id="sv" d="M158.5,253.6l4.1,2v-3.2c0,0-2.1-1.3-2.1-1.3l-1.9,2.5h0Z"/>
  <path id="sy" d="M456.8,195.6l-.3,2.2,2.4,1v6.1c-.1,0,2.3,0,2.3,0l2.4-1.8.9-.2,5.5-4.4,1.1-6.4-11.1,1.1-1.2,2.6h-2.2Z"/>
  <path id="sz" d="M451.8,355.4l-2.2.4-.9,2.6,1.7,1.5h2l1.7-2.4-2.3-2h0Z"/>
  <path id="td" d="M410.2,253.4v-2.6c.1,0,4.2-4,4.2-4l1.1-9.8-2.7-5.2,1.9-1,18.5,9.6v9.5c-.1,0-3.4,2.8-3.4,2.8v4.9l2.1,4.1h-3.8l-6.2,6.2-.2,1.9h-4.6c0,0,0,.8,0,.8l-2.6-.3-1.8-3.4-1.4-.7.2-1,1.7-1.3v-6.1l-2.3-.4-2.8-2.1,2.2-1.9h0Z"/>
  <path id="tg" d="M377.7,275.2l2.3-1.4v-8.9c0,0-1.6-2.4-1.6-2.4l-1,.8.2,11.9h0Z"/>
  <path id="th" d="M615.3,231.3l2.8,3.6v4.4l1,.5,4.5-2.1.9.3,5.3,6.1-.2,4.2-1.7-.3-1.5-1h-1.2c0,0-2,3.5-2,3.5l.4,1.9,1.6.9v2c0,0-1.3.6-1.3.6l-4-2.7v-2.4h-1.6c0,0-.7,1-.7,1l-.3,10.9,2.6,4.7,4.5,4.4-.2,1.3h-2.4c0,0-2.2-3.4-2.2-3.4h-2.3l-2.9-2.3-.9-2.4,1.3-2,.4-1.9,1.4-2.4v-5.6c0,0-3.4-4.8-3.4-4.8v-.6c-.1,0,.9-1.1.9-1.1l-.3-3.8-4.4-5.6.5-3.2,5.5-2.3h0Z"/>
  <path id="tj" d="M529,180.6l3.6-4.4h1.3l.5,1-1.6,1.2v1l1.1.8,5.2.3,1.7-.7.8.2.5,1.7,3.1.3,1.5,3.3-.5,1h-.6c0,0-.6-1.2-.6-1.2h-1.3c0-.1-2.3.2-2.3.2l-.2,2.2-2.3-.2v-2.8c.1,0-1.6-1.7-1.6-1.7l-2.6,2.1v1.4c0,0-2.2.8-2.2.8h-1.3v-4.8c.1,0-2.1-1.6-2.1-1.6h0Z"/>
  <path id="tm" d="M497.6,177l-.5,2.3h-3.6v3.1l3.9,2.5-1.2,3.5v1.6l1.6.3,2.1-2.8,4.8-1.1,10.2,3.9v2.8c.1,0,5.8.5,5.8.5l6.4-6.7-.8-2.1-4.3-.9-12-7.8-.5-2.8h-4.5l-2,3.8h-5.4Z"/>
  <path id="tn" d="M394.7,194l4.8-1.9,1.6,1v1.2c0,0-.7,1-.7,1v1.7c.1,0,.8.4.8.4v3.1l-.8,1.4v.9c.1,0,3.3,1.1,3.3,1.1l-2.6,4h-1c0,0-.2,3.2-.2,3.2l-1.1.2-1-.8.2-3.3-3.1-3.1-.4-2.7,1.5-1.2-1.3-6.2h0Z"/>
  <path id="tr" d="M442,180.3l-2.3-1.4-1.3-1-2.1.9h0l-1.5,3.7,2.2-.5,1.6-1.2,3.4.9-1.9,1.9-5.2-.2-1.9,2.1v1l1.2,1v1.1l-.5,1.3.5,1.1,1.6-.8,1.6,1.7-.4,1.2-.6.8.9,1,4.5.9,3.1-1.3v-1.9l1.5.3,3.6,2.1,3.9-.6,1.7-1.6,1.1.4v1.8h1.5l1.3-2.5,11.5-1.2,5-.6-1.3-1.7v-2.4s1-1.2,1-1.2l-3.7-3,.2-2.6h-2l-3.4-1.6h0l-1.9,2-7.1-.2-4.3-2.5-4.1.4-4.5,2.7-3.2-.4Z"/>
  <path id="tt" d="M228.2,261l-.9.8-1,.2v1.2l1.8,1.7.8-1.2.5-1.4-.2-1.1-1-.2h0Z"/>
  <path id="tw" d="M664.9,212.2l-3.1,2.3-.2,4.5,2.6,3.1.7-.6v-9.3h0Z"/>
  <path id="tz" d="M461.5,318.4l13.8-1.7-3.4-6.6-.2-6.3,1.1-3-14.4-9-4.5.7-1.6,1.2v2.6c-.1,0-1.2,3.7-1.2,3.7l-1.1,1.3h-1.5c0,.1,2.8,9.6,2.8,9.6l4.8,2.8h4.2c0,0,1,4.7,1,4.7Z"/>
  <path id="ua" d="M429.9,147.2l-2.5,1.4.6,2.7-2.3,4.9v2.2s1.1.7,1.1.7l7,.3,2-1.6,2.1.7,3,4-2.2,3.9,2.6.8,3.4-3.9,2,.4,1.8,1.3-1.6,2.1,2.2,3.4h2.3l1.2-2.2,2.4-.5v-1.8c0,0-4.5-.7-4.5-.7v-2h4.5l4.7-3.8,2.1-1.8.3-5.8-9.3-.8-3.8-5.4-2.6-.9h-3.2c0,.1-1.4,3.7-1.4,3.7h-6.6c0,0-2.1-.9-2.1-.9l-3.1-.2h0Z"/>
  <path id="ug" d="M449.5,290.6l2.6,2.5,1.6-1,4.4-.7h.8c0,0,.3-1.6.3-1.6l2.5-5.3-2.1-4.4h-6.8s0,1.9,0,1.9l.9.9v1.8c-.1,0-4.2,6.1-4.2,6.1h0Z"/>
  <g id="us">
    <path d="M112.8,134.4l-.9,3.5-3-2h-1.5l-.9,3.7-10.6,23.6,2.8,20.6,3.4,1.7.6,5.6h7.1l6.9,5.2,13.6,1.3,1.5,6.9,2.2,1.5,3-3,2.4,1.1,2.2,10,3.7,2.4,3-5.6,9.3-6.7,6,2.8,5.2.4.2-3.2,10.8.2,2.2,2.4.4,5.4-1.3,3,1.5,5.2h3.2l3.2-5-1.3-2.4-1.3-5.2,1.9-5.9,8.8-7.6,6.7-2-.9-6.3,9.3-10,9.3-1.5-1.5-5.2,9-5.2v-6.9l-.9-.4-3.2,1.1-.4,4.3h-10.7c0,.1-8.4,5.7-8.4,5.7l-13.2,4.3-2.1-2.6,6-9.1-3-2.8-2-3.8-4.2-3.4-4.5-.4-8.6-5.9-61-10h0Z"/>
    <path d="M44,43.6l3,5.6,1.9-.4v-1.9l-4.9-3.2h0Z"/>
    <path d="M27.2,92.8v2.6c-.1,0,1.7-.4,1.7-.4v-1.2l-1.7-1h0Z"/>
    <path d="M24.3,94l-3.7,1.9.6,2,1.4-1.2,2.9-1.3-1.1-1.4h0Z"/>
    <path d="M8.8,96.5l-2.6-.6-.4,1.2.3,2.2,2.7-2.7h0Z"/>
    <path d="M3.3,96.3l-2.4-1-.9,1.6,1.6,1.6,1.7-2.2h0Z"/>
    <path d="M64.7,36.3l-7.3,1.7,1.5,8.2,7.9,2.2.4,1.7-11.7,3.7-6.6,11,2.3,11.6,3.8,2.6,3-2.8.9,1.7-3.6,4.3-14.1,6.4-9,2.2-.2,3.2,20.7-6,8.5-2.4,7.9-9.7,8.7-5.8-4.5,7.5,4.9.6,8.3-3.7,1.5,6,5.8,1.3,6,5.8.4,4.3-.9,1.1,1.1,4.1h1.5l.2-6.9h1.7l.4,17,4.3-3.7-3-17.6h-4.5l-4.9-6.2,24.1-40.8-23.9-18.7-26.7,5.2-1.1,8.2,5.8,3.4-2.1,5.6-7.7-6.2h0Z"/>
  </g>
  <path id="uy" d="M243.9,370.9l-1.8,1.9.7,10.2,5.6,1.6,7.1-7.1-11.6-6.6h0Z"/>
  <path id="uz" d="M527.9,186.9h2.7c0,.1,0-4.4,0-4.4l-2.5-1.5,4.3-5.4h1.7l1.7,2,4.5-1.7-6.2-2.1-.2-1.3-1.5.4-1.5,2.5-6.3-.2-4.6-6.5-8.1.8-3.9-3.8-5.4-.9-3.9,1.6,2.3,7.5v2.5s1.7,0,1.7,0l2-3.8h5.4c0,0,.8,3,.8,3l11.5,7.6,4.4,1,1.2,2.7h0Z"/>
  <g id="vc">
    <path d="M228.1,255l-1.1.8.8,1.5,1.4-.8-1.1-1.5h0Z"/>
    <path d="M226.8,258l-1,1,.4.6h1.2l.4-1-1-.6h0Z"/>
  </g>
  <path id="ve" d="M200.7,262l.4,2.2,2.8.9.6-4.1,3-3.1,3,3.5,6.8,1.9,5.8-1.2,3.9,4.8,3,1.9-3.2,5,1.1,3.8-1.9,2.3-1.9,1.6-4.2-2.1-1,1v3l3.1,1.5-2.2,2.4-2.2,2.4-3-.2-3-3.3-.6-12.3-10.2-3.5-1.9-5.4,1.9-2.8h0Z"/>
  <path id="vn" d="M628.3,260.7l1,1.6.2,1.9,2.7.3,3.3-4.4,3.1-.9,1.6-4.5-.8-7.2-3.2-4.4-3.4-2.7-4.3-7.3,3.1-5.1-4.4-5-3.5-.2-3.2,1.7.9,4.1,4.2.7,1.1,3.1-1.5,1v.8c0,0,10,9.7,10,9.7l.4,2.8-.6,9-6.9,5h0Z"/>
  <g id="vu">
    <path d="M780.2,340.9l-1.1,1.4.5,1.6.5.4,1-1.3-.9-2.2h0Z"/>
    <path d="M780.8,345.3v1.2c0,0,1.2.4,1.2.4l.8-.4-.8-1.3-1.2.2h0Z"/>
    <path d="M782.5,355.7l-.5.8.8.9,1.3-.4-1.6-1.3h0Z"/>
  </g>
  <g id="ye">
    <path d="M478.7,247.5l1.2,3.7v3.6l3,2.7,21.1-8.6.2-2.4-3.4-6.1-8.5,2.7-4.9,4.8-5.6-3.3-3.1,2.8h0Z"/>
    <path d="M502.5,256.5l1.8,2.1,2.5-1.5.9-.3-1.1-1.1-2.2.6-1.9.2h0Z"/>
  </g>
  <path id="za" d="M446,346.4l-6.8,6.3-1.6,3.9-5.4-.7-4.5,4-3-.3.2-5.5-1.1-.4-.7,11.3h-5.3c0,0-1.6-1.9-1.6-1.9h-2.3s2.1,6.1,2.1,6.1l3.8,3.6-2.7,3.2,1.8,4,4.1,1.6,3.2-2.8h9.3c0,0,.7-.8.7-.8l4.1-.7,14-13.9v-4.4c0,0-1.5,1.9-1.5,1.9h-2.2l-2.7-2.3,1.4-3.4,2.4-.5-.2-7.1-5.3-1.2h0ZM442.7,362.4h1.3c0,0,2.1,2.2,2.1,2.2v2.7c0,0-2.5,1.3-2.5,1.3l-.2.9h-3.8s-1.2-2.8-1.2-2.8l1.1-2.1,3.2-2.1h0Z"/>
  <path id="zm" d="M429,330.1l2.7,3.8,4.2.3,1.5.8h4.4c0,0,3.8-5.3,3.8-5.3l10.7-4.8.9-4.2-1.2-6-5.6-3.2-3.7.3-1.9,4.1v1.9c0,0,4.4,2.1,4.4,2.1l.3,4.6-3.8.2-.9-1.6-10.5-4.5-.3,3.4-5,.2-.2,7.9h0Z"/>
  <path id="zw" d="M437.8,336.6l7.8,8.8,5.9,1.5,4-6.2-.3-8.3-6.5-3.3-2.4,1.1-3.6,5.5h-5c0,0,.2,1,.2,1h0Z"/>
</svg>
